<svg width="570" height="124" viewBox="0 0 570 124" xmlns="http://www.w3.org/2000/svg"><title>Logo White</title><g fill="none"><g fill="#FFF" fill-rule="nonzero"><path d="M18 39.2v3.797c-8.977 8.168-14.621 19.939-14.621 33.003 0 24.604 20.017 44.621 44.621 44.621 24.604 0 44.621-20.017 44.621-44.621 0-13.064-5.644-24.835-14.621-33.003v-3.797c10.674 8.717 17.5 21.977 17.5 36.8 0 26.19-21.31 47.5-47.5 47.5-26.191 0-47.5-21.31-47.5-47.5 0-14.823 6.826-28.083 17.5-36.8z"/><path d="M23.537 60.711c-4.246 0-7.701-3.452-7.701-7.697 0-4.248 3.455-7.703 7.701-7.703 4.247 0 7.7 3.455 7.7 7.703 0 4.245-3.453 7.697-7.7 7.697zm0-12.522a4.83 4.83 0 0 0-4.823 4.824 4.827 4.827 0 0 0 4.823 4.818 4.826 4.826 0 0 0 4.821-4.818 4.829 4.829 0 0 0-4.821-4.824zm67.824 5.66c-.129 0-.258-.018-.388-.054-7.505-2.101-12.745-9.008-12.745-16.795 0-7.787 5.24-14.694 12.746-16.795a1.441 1.441 0 0 1 1.743.902c1.846 5.188 2.783 10.532 2.783 15.893 0 5.361-.937 10.705-2.783 15.893a1.438 1.438 0 0 1-1.356.956zm-.905-30.445c-5.566 2.14-9.35 7.549-9.35 13.596s3.783 11.456 9.35 13.596c1.438-4.456 2.165-9.021 2.165-13.596 0-4.575-.727-9.14-2.165-13.596zm-42.456 61.096c-2.726 0-5.497-.262-8.472-.796a1.44 1.44 0 0 1-1.184-1.349l-.024-.385c-.018-.284-.036-.565-.036-.852 0-14.088 11.462-25.55 25.549-25.55 8.125 0 15.586 3.756 20.467 10.304.402.537.38 1.279-.054 1.791-9.06 10.7-22.271 16.837-36.246 16.837zm-6.837-3.438c2.383.377 4.629.56 6.837.56 12.738 0 24.799-5.429 33.28-14.937-4.329-5.249-10.624-8.237-17.447-8.237-12.48-.001-22.64 10.14-22.67 22.614z" transform="translate(0 39)"/><path d="M18.046.32v52.956c0 7.144 5.811 12.954 12.954 12.954 7.143 0 12.954-5.811 12.954-12.954v-52.957c.633.18 1.263.373 1.89.579.591.193.989.744.989 1.366v51.012c0 8.729-7.104 15.833-15.833 15.833-8.73 0-15.833-7.104-15.833-15.833v-51.004c0-.621.4-1.181.99-1.374a48.115 48.115 0 0 1 1.889-.578z" transform="translate(17)"/><path d="M35.046.28v3c-5.162 1.567-10.016 4.083-14.395 7.492v41.805c0 15.082 12.269 27.351 27.349 27.351s27.349-12.269 27.349-27.352v-41.802c-4.38-3.409-9.233-5.926-14.395-7.492v-3.002c6.035 1.708 11.69 4.627 16.734 8.675.343.272.54.687.54 1.122v42.499c0 16.668-13.56 30.231-30.228 30.231-16.667 0-30.227-13.563-30.227-30.23v-42.503c0-.436.198-.849.538-1.122 5.044-4.047 10.7-6.964 16.735-8.672z"/></g><path d="M40.2 81.3v-37.3c0-2.133-.467-3.883-1.4-5.25-.933-1.367-2.367-2.05-4.3-2.05-.667 0-1.333.067-2 .2l-2 .4c-.667.133-1.35.233-2.05.3a7.01 7.01 0 0 1-2.05-.1c-1.067-.133-2.033-.567-2.9-1.3a15.011 15.011 0 0 1-2.4-2.6c3.467-2 6.417-3.35 8.85-4.05 2.433-.7 4.617-1.05 6.55-1.05 1.867 0 3.683.283 5.45.85a12.744 12.744 0 0 1 4.7 2.7c1.367 1.233 2.45 2.883 3.25 4.95.8 2.067 1.2 4.6 1.2 7.6v36.7h-10.9z" stroke="#FFF" stroke-width="3" transform="translate(87)"/><path d="M96.1 42.2v37.6c-.134 2.962-.544 5.455-1.231 7.478 1.137-2.269 4.147-4.761 9.031-7.478v-39.2c0-1.865-.232-3.61-.693-5.242-.39-1.374-1.183-2.795-2.396-4.258h-5.941c.82 3.945 1.231 7.645 1.231 11.1zm6.074-14.1l.447.503c1.742 1.96 2.906 3.937 3.472 5.939.539 1.902.807 3.923.807 6.058v42.2c-5.998 2.537-11.96 8.212-17.89 17.024-3.126 2.78-1.763-2.896 4.09-17.024v-40.6c0-3.745-.519-7.83-1.56-12.256l-.434-1.844h11.068z" fill="#FFF" fill-rule="nonzero"/><path stroke="#FFF" stroke-width="3" d="M164.7 81.3h-10.9v-51.7h10.9z"/><path d="M118.3 74.1c.6.133 1.133.217 1.6.25.467.033 1 .05 1.6.05 1.8 0 3.467-.333 5-1a12.607 12.607 0 0 0 4.05-2.8c1.167-1.2 2.083-2.6 2.75-4.2.667-1.6 1-3.367 1-5.3 0-2.333-.483-4.383-1.45-6.15-.967-1.767-2.3-3.233-4-4.4-1.7-1.167-3.7-2.05-6-2.65-2.3-.6-4.75-.9-7.35-.9h-10.8v34.3h-10.8v-71.7c4.267-.8 8.033-1.383 11.3-1.75 3.267-.367 6.7-.55 10.3-.55 4.333 0 8.117.5 11.35 1.5 3.233 1 5.933 2.367 8.1 4.1 2.167 1.733 3.8 3.8 4.9 6.2 1.1 2.4 1.65 5 1.65 7.8 0 1.2-.183 2.483-.55 3.85a19.064 19.064 0 0 1-1.55 3.95 18.22 18.22 0 0 1-2.45 3.55c-.967 1.1-2.05 2.05-3.25 2.85l-2.9 1.4 2.8.7c3.8 1.667 6.783 4.033 8.95 7.1 2.167 3.067 3.25 6.567 3.25 10.5 0 2.6-.533 5.183-1.6 7.75-1.067 2.567-2.633 4.883-4.7 6.95s-4.567 3.75-7.5 5.05c-2.933 1.3-6.267 1.95-10 1.95-1.933 0-3.883-.117-5.85-.35-1.967-.233-4.45-.717-7.45-1.45a19.482 19.482 0 0 1 1.65-2.55 14.99 14.99 0 0 1 2.1-2.25 7.8 7.8 0 0 1 2.6-1.5c.967-.333 2.05-.433 3.25-.3zM104.7 39.4h10.8c4.6 0 8.217-1.167 10.85-3.5 2.633-2.333 3.95-5.3 3.95-8.9 0-1.533-.3-3-.9-4.4-.6-1.4-1.517-2.617-2.75-3.65s-2.783-1.867-4.65-2.5c-1.867-.633-4.033-.95-6.5-.95-3.6 0-7.2.2-10.8.6v23.3zm73.8 10.2h11.6c.2-1.8.1-3.5-.3-5.1-.4-1.6-1.067-3-2-4.2-.933-1.2-2.05-2.15-3.35-2.85-1.3-.7-2.75-1.05-4.35-1.05-3.8 0-7 1.55-9.6 4.65-2.6 3.1-3.9 7.683-3.9 13.75 0 2.933.383 5.6 1.15 8 .767 2.4 1.833 4.45 3.2 6.15 1.367 1.7 3 3.017 4.9 3.95 1.9.933 3.95 1.4 6.15 1.4 2.333 0 4.533-.25 6.6-.75 2.067-.5 4.567-1.45 7.5-2.85l2.8 7.3c-3.4 1.733-6.617 2.9-9.65 3.5-3.033.6-5.85.9-8.45.9-3.933 0-7.433-.733-10.5-2.2s-5.667-3.45-7.8-5.95-3.75-5.417-4.85-8.75c-1.1-3.333-1.65-6.867-1.65-10.6 0-4.067.6-7.733 1.8-11 1.2-3.267 2.9-6.033 5.1-8.3 2.2-2.267 4.833-4.017 7.9-5.25 3.067-1.233 6.467-1.85 10.2-1.85 3.467 0 6.583.767 9.35 2.3 2.767 1.533 5 3.583 6.7 6.15 1.7 2.567 2.75 5.55 3.15 8.95.4 3.4 0 7-1.2 10.8h-28.8c.733-2 1.75-3.683 3.05-5.05 1.3-1.367 3.05-2.05 5.25-2.05zm73.4.4v14.2c0 3.667.117 6.883.35 9.65.233 2.767.65 5.25 1.25 7.45h-7.8c-1.133-.667-2.033-1.65-2.7-2.95-.667-1.3-1.033-2.617-1.1-3.95l-1.1 1.7c-2.667 2.6-5.083 4.3-7.25 5.1-2.167.8-4.517 1.2-7.05 1.2-2.533 0-4.817-.383-6.85-1.15-2.033-.767-3.75-1.8-5.15-3.1a13.591 13.591 0 0 1-3.25-4.6c-.767-1.767-1.15-3.65-1.15-5.65 0-2.4.467-4.55 1.4-6.45.933-1.9 2.483-3.55 4.65-4.95 2.167-1.4 5.017-2.567 8.55-3.5 3.533-.933 7.867-1.667 13-2.2a20.995 20.995 0 0 1-.6 2.4 8.804 8.804 0 0 1-1.2 2.45c-.533.767-1.233 1.45-2.1 2.05-.867.6-1.9 1-3.1 1.2-3.867.667-6.45 1.75-7.75 3.25-1.3 1.5-1.95 3.15-1.95 4.95 0 1.933.7 3.617 2.1 5.05 1.4 1.433 3.267 2.15 5.6 2.15 2.133 0 4.3-.583 6.5-1.75s4.233-2.983 6.1-5.45v-17.6c0-3.8-.95-6.883-2.85-9.25-1.9-2.367-4.983-3.55-9.25-3.55-1.733 0-3.517.167-5.35.5-1.833.333-3.917.933-6.25 1.8l-2.6-6.9c3.2-1.4 6.133-2.333 8.8-2.8 2.667-.467 5.1-.7 7.3-.7 6.667 0 11.8 1.85 15.4 5.55 3.6 3.7 5.4 8.983 5.4 15.85zm24.6-20.4v37.3c0 2.133.45 3.883 1.35 5.25.9 1.367 2.317 2.05 4.25 2.05 1 0 2.083-.167 3.25-.5 1.167-.333 2.383-.5 3.65-.5a6.606 6.606 0 0 1 3.6 1.25c1.067.767 2.067 1.717 3 2.85-3.533 2-6.517 3.35-8.95 4.05-2.433.7-4.617 1.05-6.55 1.05-1.933 0-3.75-.283-5.45-.85a12.413 12.413 0 0 1-4.55-2.7c-1.333-1.233-2.383-2.883-3.15-4.95-.767-2.067-1.15-4.6-1.15-7.6v-36.7h10.7zm33.9 51.7h-8.3c-1.6-1.8-2.65-3.583-3.15-5.35-.5-1.767-.75-3.65-.75-5.65v-40.7h10.6v39.1c0 3.867.533 8.067 1.6 12.6zm46-43.9h-5.4c-2.533 0-4.467-.8-5.8-2.4a16.516 16.516 0 0 1-3-5.4h14.2v7.8z" stroke="#FFF" stroke-width="3" transform="translate(87)"/><path d="M415.6 62v-24.6h-9v-5.5l9-2.3v-12.9l10-3.3v49.4c0 3.4.733 6.2 2.2 8.4s3.4 3.3 5.8 3.3c1.2 0 2.417-.117 3.65-.35 1.233-.233 2.717-.617 4.45-1.15l2.4 7.1c-2.533.867-4.567 1.483-6.1 1.85-1.533.367-3.133.55-4.8.55-5.733 0-10.1-1.783-13.1-5.35-3-3.567-4.5-8.617-4.5-15.15zM467.3 81.3h-10.9v-51.7h10.9zM507 29.6h5.5v7.8h-14.4c.667-2 1.683-3.8 3.05-5.4 1.367-1.6 3.317-2.4 5.85-2.4z" stroke="#FFF" stroke-width="3"/><path d="M397.5 37.4h-8.5v-5.7l8.5-2.1v-2.8c0-3.267.45-6.25 1.35-8.95.9-2.7 2.2-5 3.9-6.9 1.7-1.9 3.8-3.367 6.3-4.4 2.5-1.033 5.317-1.55 8.45-1.55 1.667 0 3.567.183 5.7.55 2.133.367 4.367 1.083 6.7 2.15l-2.4 6.9c-2.067-.733-3.767-1.217-5.1-1.45-1.333-.233-2.567-.35-3.7-.35a11.59 11.59 0 0 0-4.25.8 9.758 9.758 0 0 0-3.6 2.45c-1.033 1.1-1.85 2.483-2.45 4.15-.6 1.667-.9 3.633-.9 5.9v55.2h-10v-43.9zm43.2 60.5c1.867 0 3.45-.5 4.75-1.5 1.3-1 2.45-2.4 3.45-4.2 1-1.8 1.95-3.933 2.85-6.4.9-2.467 1.85-5.2 2.85-8.2l15.3-48h11l-18.3 50.6a437.266 437.266 0 0 1-4 10.3c-1.267 3.133-2.7 5.85-4.3 8.15-1.6 2.3-3.467 4.1-5.6 5.4-2.133 1.3-4.8 1.95-8 1.95-2.867-.133-5.8-.7-8.8-1.7l2.7-7.3c2.2.6 4.233.9 6.1.9zM441.3 29.6a1345.055 1345.055 0 0 0 5.35 16.5c1.833 5.533 3.417 11 4.75 16.4.4 1.667.617 3.367.65 5.1a26.438 26.438 0 0 1-.35 4.95 21.316 21.316 0 0 1-1.2 4.35c-.533 1.333-1.167 2.433-1.9 3.3l-18.6-50.6h11.3z" stroke="#FFF" stroke-width="3" transform="translate(87)"/><path d="M61.6 11.963l2.52 1.38a13.803 13.803 0 0 1 5.493 5.49l1.38 2.522a1.15 1.15 0 0 0 2.017 0l1.38-2.521a13.793 13.793 0 0 1 5.49-5.492l2.522-1.379a1.149 1.149 0 0 0-.001-2.019l-2.52-1.377a13.793 13.793 0 0 1-5.492-5.49l-1.379-2.523c-.403-.74-1.614-.74-2.018 0l-1.379 2.52a13.778 13.778 0 0 1-5.491 5.491l-2.522 1.378a1.149 1.149 0 1 0 0 2.019zm3.625-1.378a16.096 16.096 0 0 0 6.407-6.406l.37-.676.368.676a16.092 16.092 0 0 0 6.407 6.407l.676.368-.677.37a16.086 16.086 0 0 0-6.406 6.406l-.369.677-.37-.678a16.1 16.1 0 0 0-6.406-6.404l-.676-.37.676-.37zm299.374 1.378l2.522 1.38a13.803 13.803 0 0 1 5.492 5.49l1.38 2.522a1.15 1.15 0 0 0 2.017 0l1.38-2.521a13.793 13.793 0 0 1 5.49-5.492l2.522-1.379a1.149 1.149 0 0 0-.001-2.019l-2.52-1.377a13.793 13.793 0 0 1-5.492-5.49l-1.379-2.523c-.403-.74-1.614-.74-2.018 0l-1.379 2.52a13.778 13.778 0 0 1-5.491 5.491l-2.522 1.378a1.149 1.149 0 1 0 0 2.019zm3.626-1.378a16.096 16.096 0 0 0 6.407-6.406l.37-.676.368.676a16.092 16.092 0 0 0 6.407 6.407l.676.368-.677.37a16.086 16.086 0 0 0-6.406 6.406l-.369.677-.37-.678a16.1 16.1 0 0 0-6.406-6.404l-.676-.37.676-.37z" fill="#FFF" fill-rule="nonzero" transform="translate(87)"/></g></svg>