<svg width="570" height="124" viewBox="0 0 570 124" xmlns="http://www.w3.org/2000/svg"><title>Logo Reversed White</title><desc>Created with Sketch.</desc><g fill="#fff"><g><g fill-rule="nonzero"><path d="M18 39.199v9.674c-6.597 7.279-10.621 16.932-10.621 27.506 0 22.607 18.393 41 41 41s41-18.393 41-41c0-10.974-4.333-20.954-11.379-28.32v-8.859c10.674 8.718 17.5 21.978 17.5 36.8 0 26.19-21.31 47.5-47.5 47.5-26.191 0-47.5-21.31-47.5-47.5 0-14.823 6.826-28.083 17.5-36.801z" id="Combined-Shape"/><path d="M23.537 99.711c-4.246 0-7.701-3.452-7.701-7.697 0-4.248 3.455-7.703 7.701-7.703 4.247 0 7.7 3.455 7.7 7.703 0 4.245-3.453 7.697-7.7 7.697zM91.361 92.849c-.129 0-.258-.018-.388-.054-7.505-2.101-12.745-9.008-12.745-16.795 0-7.787 5.24-14.694 12.746-16.795.726-.202 1.49.191 1.743.902 1.846 5.188 2.783 10.532 2.783 15.893 0 5.361-.937 10.705-2.783 15.893-.208.585-.759.956-1.356.956zM48 123.5c-2.726 0-5.497-.262-8.472-.796-.661-.118-1.153-.68-1.184-1.349l-.024-.385c-.018-.284-.036-.565-.036-.852 0-14.088 11.462-25.55 25.549-25.55 8.125 0 15.586 3.756 20.467 10.304.402.537.38 1.279-.054 1.791-9.06 10.7-22.271 16.837-36.246 16.837z" id="Shape"/></g><path d="M32.167 1.196v52.08c0 8.729 7.103 15.833 15.833 15.833 8.729 0 15.833-7.104 15.833-15.833v-52.079c4.958 1.758 9.622 4.36 13.855 7.758.343.272.54.687.54 1.122v42.499c0 16.668-13.56 30.231-30.228 30.231-16.667 0-30.227-13.563-30.227-30.23v-42.503c0-.436.198-.849.538-1.122 4.234-3.396 8.898-5.998 13.856-7.756z" id="Shape" fill-rule="nonzero"/></g><g fill-rule="nonzero"><path d="M109.531 37.345c-.959-.811-1.839-1.765-2.641-2.858l-.99-1.35 1.45-.836c3.564-2.056 6.619-3.454 9.185-4.192 2.56-.737 4.88-1.108 6.965-1.108 2.022 0 3.993.307 5.908.922 1.969.631 3.722 1.639 5.247 3.015 1.55 1.399 2.763 3.246 3.644 5.522.873 2.254 1.301 4.968 1.301 8.141v38.2h-13.9v-38.8c0-1.849-.388-3.305-1.139-4.404-.64-.937-1.603-1.396-3.061-1.396-.567 0-1.136.057-1.706.171l-2 .4c-.717.143-1.451.251-2.202.322-.826.079-1.639.042-2.433-.112-1.338-.178-2.557-.73-3.628-1.636zM102.174 28.1l.448.503c1.742 1.959 2.906 3.936 3.472 5.938.538 1.903.807 3.923.807 6.058v42.2c-5.998 2.537-11.961 8.212-17.889 17.024-3.127 2.779-1.764-2.896 4.089-17.024v-40.6c0-3.745-.519-7.831-1.56-12.256l-.434-1.844h11.068zM152.3 82.8v-54.7h13.9v54.7z" id="Path"/><path d="M230.775 49.434c2.348 3.323 3.525 7.126 3.525 11.366 0 2.801-.574 5.58-1.715 8.326-1.143 2.75-2.821 5.231-5.024 7.435-2.2 2.2-4.855 3.988-7.953 5.361-3.133 1.388-6.673 2.079-10.608 2.079-1.993 0-4.002-.12-6.027-.36-2.035-.241-4.575-.736-7.629-1.482l-1.884-.461.92-1.708c.504-.936 1.097-1.852 1.776-2.746.695-.914 1.465-1.74 2.31-2.474.912-.793 1.947-1.39 3.095-1.786 1.187-.409 2.492-.53 3.905-.373.692.145 1.154.217 1.541.245.429.031.927.046 1.493.046 1.598 0 3.061-.293 4.402-.876 1.354-.589 2.542-1.41 3.573-2.47 1.034-1.063 1.846-2.304 2.441-3.731.588-1.412.885-2.983.885-4.723 0-2.091-.425-3.893-1.266-5.43-.853-1.559-2.026-2.849-3.533-3.883-1.551-1.065-3.392-1.878-5.53-2.435-2.173-.567-4.496-.851-6.971-.851h-9.3v34.3h-13.8v-74.445l1.224-.229c4.301-.806 8.103-1.395 11.409-1.766 3.324-.373 6.813-.559 10.467-.559 4.476 0 8.406.519 11.793 1.567 3.405 1.053 6.272 2.504 8.594 4.362 2.347 1.878 4.128 4.131 5.327 6.746 1.191 2.599 1.786 5.412 1.786 8.425 0 1.337-.202 2.75-.601 4.239-.396 1.474-.953 2.895-1.671 4.26-.722 1.372-1.606 2.653-2.651 3.842-.964 1.097-2.037 2.06-3.217 2.884 3.735 1.756 6.715 4.195 8.916 7.31zm-28.275-11.534c4.256 0 7.519-1.052 9.855-3.123 2.31-2.047 3.445-4.604 3.445-7.777 0-1.331-.259-2.596-.779-3.809-.506-1.181-1.279-2.207-2.335-3.091-1.083-.907-2.47-1.653-4.169-2.229-1.702-.577-3.707-.87-6.018-.87-3.1 0-6.2.151-9.3.452v20.448h9.3z"/><path d="M256.179 62.344c.712 2.23 1.694 4.116 2.94 5.667 1.23 1.53 2.691 2.708 4.392 3.544 1.692.831 3.516 1.246 5.489 1.246 2.217 0 4.299-.237 6.247-.708 1.953-.473 4.36-1.387 7.207-2.746l1.465-.699 3.865 10.076-1.203.613c-3.517 1.793-6.863 3.007-10.04 3.635-3.125.618-6.039.929-8.741.929-4.15 0-7.87-.78-11.147-2.347-3.254-1.556-6.023-3.668-8.294-6.33-2.262-2.651-3.973-5.739-5.133-9.254-1.151-3.487-1.726-7.179-1.726-11.07 0-4.237.629-8.078 1.892-11.517 1.271-3.459 3.082-6.406 5.432-8.827 2.348-2.419 5.158-4.286 8.417-5.597 3.25-1.307 6.84-1.958 10.76-1.958 3.715 0 7.082.828 10.077 2.488 2.976 1.649 5.389 3.865 7.223 6.634 1.834 2.768 2.962 5.976 3.389 9.603.426 3.62.002 7.432-1.259 11.427l-.331 1.048h-31.804c.176 1.47.471 2.851.884 4.144zm-.387-6.16c.802-2.187 1.925-4.047 3.371-5.567 1.596-1.678 3.742-2.516 6.337-2.516h10.197c.022-1.132-.096-2.21-.353-3.236-.35-1.402-.926-2.611-1.729-3.643-.806-1.037-1.762-1.85-2.877-2.45-1.077-.58-2.282-.871-3.639-.871-3.348 0-6.131 1.348-8.451 4.114-2.345 2.795-3.549 7.043-3.549 12.786 0 .998.046 1.962.139 2.891l.553-1.507zM326.8 49.5c0-3.477-.848-6.228-2.52-8.311-1.583-1.972-4.233-2.989-8.08-2.989-1.642 0-3.335.158-5.082.476-1.74.316-3.74.892-5.996 1.73l-1.4.52-3.628-9.629 1.305-.571c3.304-1.445 6.35-2.415 9.143-2.903 2.748-.481 5.267-.722 7.559-.722 7.047 0 12.57 1.991 16.475 6.004 3.897 4.005 5.825 9.664 5.825 16.896v14.2c0 3.627.115 6.802.345 9.524.226 2.68.628 5.074 1.202 7.181l.517 1.895h-10.172l-.352-.207c-1.386-.815-2.481-2.012-3.274-3.558-.2-.391-.378-.785-.531-1.181-2.531 2.358-4.876 3.945-7.065 4.753-2.337.863-4.863 1.293-7.57 1.293-2.708 0-5.17-.413-7.379-1.246-2.21-.833-4.094-1.967-5.641-3.404-1.552-1.441-2.756-3.146-3.605-5.102-.849-1.957-1.274-4.044-1.274-6.247 0-2.622.516-4.998 1.554-7.111 1.06-2.158 2.798-4.008 5.182-5.549 2.313-1.494 5.305-2.719 8.981-3.69 3.616-.955 8.023-1.701 13.228-2.242l1.988-.207-.358 1.967c-.145.795-.359 1.652-.642 2.573-.313 1.016-.781 1.973-1.402 2.865-.639.919-1.468 1.728-2.478 2.427-1.056.731-2.297 1.211-3.699 1.445-3.557.613-5.849 1.574-6.871 2.754-1.07 1.234-1.584 2.539-1.584 3.968 0 1.538.544 2.846 1.673 4.002 1.105 1.131 2.582 1.698 4.527 1.698 1.878 0 3.806-.519 5.797-1.575 1.879-.997 3.648-2.537 5.303-4.636v-17.088zM365 66.9c0 1.858.377 3.322 1.103 4.425.608.923 1.545 1.375 2.997 1.375.853 0 1.799-.146 2.838-.442 1.302-.372 2.658-.558 4.137-.556 1.62.081 3.099.594 4.401 1.53 1.175.844 2.269 1.884 3.282 3.114l1.136 1.379-1.555.88c-3.627 2.053-6.712 3.449-9.274 4.186-2.56.737-4.88 1.108-6.965 1.108-2.092 0-4.068-.308-5.924-.927-1.903-.634-3.605-1.644-5.094-3.022-1.516-1.402-2.693-3.252-3.538-5.529-.834-2.248-1.244-4.955-1.244-8.122v-38.2h13.7v38.8zM388.426 82.8l-.448-.503c-1.742-1.959-2.906-3.936-3.472-5.938-.538-1.903-.807-3.923-.807-6.058v-42.2h13.6v40.6c0 3.745.519 7.831 1.56 12.256l.434 1.844h-10.868zM438 38.9c-2.956 0-5.316-.977-6.952-2.94-1.453-1.744-2.545-3.709-3.271-5.886l-.658-1.974h17.781v10.8h-6.9zM414.1 15.615l13-4.29v51.475c0 3.121.658 5.633 1.948 7.568 1.196 1.794 2.669 2.632 4.552 2.632 1.105 0 2.229-.108 3.371-.324 1.173-.222 2.604-.592 4.288-1.11l1.395-.429 3.346 9.898-1.414.484c-2.574.881-4.65 1.51-6.237 1.89-1.649.394-3.366.591-5.149.591-6.153 0-10.944-1.957-14.248-5.884-3.251-3.865-4.852-9.255-4.852-16.116v-23.1h-9v-8.165l9-2.3v-12.82zM454.9 82.8v-54.7h13.9v54.7zM507 28.1h7v10.8h-17.981l.658-1.974c.728-2.183 1.84-4.153 3.332-5.9 1.668-1.953 4.039-2.926 6.991-2.926zM474.5 38.9v-8.375l8.5-2.1v-1.625c0-3.423.474-6.566 1.427-9.424.963-2.889 2.365-5.369 4.205-7.426 1.853-2.071 4.14-3.668 6.845-4.786 2.689-1.111 5.7-1.664 9.023-1.664 1.758 0 3.741.191 5.954.572 2.267.39 4.623 1.146 7.07 2.264l1.242.568-3.344 9.615-1.422-.505c-1.994-.708-3.618-1.169-4.857-1.386-1.251-.219-2.399-.328-3.441-.328-1.28 0-2.512.232-3.705.697-1.157.452-2.17 1.141-3.052 2.08-.887.944-1.599 2.15-2.132 3.631-.537 1.492-.811 3.289-.811 5.392v56.7h-13v-43.9h-8.5zM527.7 96.4c1.547 0 2.807-.398 3.835-1.189 1.127-.867 2.148-2.109 3.053-3.74.959-1.727 1.878-3.789 2.752-6.186.895-2.453 1.84-5.173 2.83-8.141l15.633-49.044h14.234l-.727 2.01-18.306 50.617c-1.404 3.745-2.742 7.19-4.014 10.335-1.307 3.233-2.792 6.048-4.459 8.444-1.716 2.466-3.734 4.412-6.051 5.824-2.385 1.454-5.321 2.169-8.85 2.167-3.008-.14-6.077-.733-9.205-1.775l-1.47-.49 3.714-10.042 1.325.361c2.077.566 3.979.847 5.705.847zM529.73 29.147c1.731 5.461 3.513 10.954 5.344 16.482 1.845 5.57 3.44 11.074 4.785 16.522.425 1.772.656 3.58.691 5.421.035 1.825-.088 3.569-.371 5.231-.284 1.669-.712 3.221-1.286 4.655-.59 1.475-1.303 2.714-2.148 3.712l-1.664 1.967-20.23-55.036h14.548l.332 1.047z"/><path d="M148.599 11.963l2.521 1.379c2.322 1.27 4.221 3.17 5.493 5.491l1.379 2.521c.201.369.589.599 1.009.599.42 0 .807-.229 1.009-.599l1.379-2.521c1.27-2.322 3.169-4.22 5.491-5.491l2.521-1.379c.369-.201.598-.589.598-1.009 0-.42-.23-.807-.599-1.01l-2.52-1.377c-2.324-1.271-4.221-3.17-5.491-5.491l-1.379-2.521c-.404-.74-1.615-.74-2.019 0l-1.379 2.52c-1.27 2.324-3.17 4.223-5.491 5.491l-2.521 1.378c-.369.202-.599.59-.599 1.01 0 .42.23.809.599 1.009z"/><path d="M451.599 11.963l2.521 1.379c2.322 1.27 4.221 3.17 5.493 5.491l1.379 2.521c.201.369.589.599 1.009.599.42 0 .807-.229 1.009-.599l1.379-2.521c1.27-2.322 3.169-4.22 5.491-5.491l2.521-1.379c.369-.201.598-.589.598-1.009 0-.42-.23-.807-.599-1.01l-2.52-1.377c-2.324-1.271-4.221-3.17-5.491-5.491l-1.379-2.521c-.404-.74-1.615-.74-2.019 0l-1.379 2.52c-1.27 2.324-3.17 4.223-5.491 5.491l-2.521 1.378c-.369.202-.599.59-.599 1.01 0 .42.23.809.599 1.009z"/></g></g></svg>