<svg width="96" height="124" viewBox="0 0 96 124" xmlns="http://www.w3.org/2000/svg"><title>Signet Reversed White</title><desc>Created with Sketch.</desc><g fill="#fff" fill-rule="nonzero"><g><path d="M18 39.199v9.674c-6.597 7.279-10.621 16.932-10.621 27.506 0 22.607 18.393 41 41 41s41-18.393 41-41c0-10.974-4.333-20.954-11.379-28.32v-8.859c10.674 8.718 17.5 21.978 17.5 36.8 0 26.19-21.31 47.5-47.5 47.5-26.191 0-47.5-21.31-47.5-47.5 0-14.823 6.826-28.083 17.5-36.801z"/><path d="M23.537 99.711c-4.246 0-7.701-3.452-7.701-7.697 0-4.248 3.455-7.703 7.701-7.703 4.247 0 7.7 3.455 7.7 7.703 0 4.245-3.453 7.697-7.7 7.697zM91.361 92.849c-.129 0-.258-.018-.388-.054-7.505-2.101-12.745-9.008-12.745-16.795 0-7.787 5.24-14.694 12.746-16.795.726-.202 1.49.191 1.743.902 1.846 5.188 2.783 10.532 2.783 15.893 0 5.361-.937 10.705-2.783 15.893-.208.585-.759.956-1.356.956zM48 123.5c-2.726 0-5.497-.262-8.472-.796-.661-.118-1.153-.68-1.184-1.349l-.024-.385c-.018-.284-.036-.565-.036-.852 0-14.088 11.462-25.55 25.549-25.55 8.125 0 15.586 3.756 20.467 10.304.402.537.38 1.279-.054 1.791-9.06 10.7-22.271 16.837-36.246 16.837z" id="Shape"/></g><path d="M32.167 1.196v52.08c0 8.729 7.103 15.833 15.833 15.833 8.729 0 15.833-7.104 15.833-15.833v-52.079c4.958 1.758 9.622 4.36 13.855 7.758.343.272.54.687.54 1.122v42.499c0 16.668-13.56 30.231-30.228 30.231-16.667 0-30.227-13.563-30.227-30.23v-42.503c0-.436.198-.849.538-1.122 4.234-3.396 8.898-5.998 13.856-7.756z"/></g></svg>