<svg width="96" height="124" viewBox="0 0 96 124" xmlns="http://www.w3.org/2000/svg"><title>Signet White</title><g fill="#FFF"><path d="M18 39.2v3.797c-8.977 8.168-14.621 19.939-14.621 33.003 0 24.604 20.017 44.621 44.621 44.621 24.604 0 44.621-20.017 44.621-44.621 0-13.064-5.644-24.835-14.621-33.003v-3.797c10.674 8.717 17.5 21.977 17.5 36.8 0 26.19-21.31 47.5-47.5 47.5-26.191 0-47.5-21.31-47.5-47.5 0-14.823 6.826-28.083 17.5-36.8z"/><path d="M23.537 60.711c-4.246 0-7.701-3.452-7.701-7.697 0-4.248 3.455-7.703 7.701-7.703 4.247 0 7.7 3.455 7.7 7.703 0 4.245-3.453 7.697-7.7 7.697zm0-12.522a4.83 4.83 0 0 0-4.823 4.824 4.827 4.827 0 0 0 4.823 4.818 4.826 4.826 0 0 0 4.821-4.818 4.829 4.829 0 0 0-4.821-4.824zm67.824 5.66c-.129 0-.258-.018-.388-.054-7.505-2.101-12.745-9.008-12.745-16.795 0-7.787 5.24-14.694 12.746-16.795a1.441 1.441 0 0 1 1.743.902c1.846 5.188 2.783 10.532 2.783 15.893 0 5.361-.937 10.705-2.783 15.893a1.438 1.438 0 0 1-1.356.956zm-.905-30.445c-5.566 2.14-9.35 7.549-9.35 13.596s3.783 11.456 9.35 13.596c1.438-4.456 2.165-9.021 2.165-13.596 0-4.575-.727-9.14-2.165-13.596zm-42.456 61.096c-2.726 0-5.497-.262-8.472-.796a1.44 1.44 0 0 1-1.184-1.349l-.024-.385c-.018-.284-.036-.565-.036-.852 0-14.088 11.462-25.55 25.549-25.55 8.125 0 15.586 3.756 20.467 10.304.402.537.38 1.279-.054 1.791-9.06 10.7-22.271 16.837-36.246 16.837zm-6.837-3.438c2.383.377 4.629.56 6.837.56 12.738 0 24.799-5.429 33.28-14.937-4.329-5.249-10.624-8.237-17.447-8.237-12.48-.001-22.64 10.14-22.67 22.614z" transform="translate(0 39)"/><path d="M18.046.32v52.956c0 7.144 5.811 12.954 12.954 12.954 7.143 0 12.954-5.811 12.954-12.954v-52.957c.633.18 1.263.373 1.89.579.591.193.989.744.989 1.366v51.012c0 8.729-7.104 15.833-15.833 15.833-8.73 0-15.833-7.104-15.833-15.833v-51.004c0-.621.4-1.181.99-1.374a48.115 48.115 0 0 1 1.889-.578z" transform="translate(17)"/><path d="M35.046.28v3c-5.162 1.567-10.016 4.083-14.395 7.492v41.805c0 15.082 12.269 27.351 27.349 27.351s27.349-12.269 27.349-27.352v-41.802c-4.38-3.409-9.233-5.926-14.395-7.492v-3.002c6.035 1.708 11.69 4.627 16.734 8.675.343.272.54.687.54 1.122v42.499c0 16.668-13.56 30.231-30.228 30.231-16.667 0-30.227-13.563-30.227-30.23v-42.503c0-.436.198-.849.538-1.122 5.044-4.047 10.7-6.964 16.735-8.672z"/></g></svg>