<svg width="129" height="151" viewBox="0 0 129 151" xmlns="http://www.w3.org/2000/svg"><title>bag</title><desc>Created with Sketch.</desc><g fill="none"><g fill="#303438" fill-rule="nonzero"><path d="M4.554 46.983c-1.472 0-2.667-1.195-2.667-2.667v-10.685c0-4.412 3.589-8.004 8.003-8.004h19.997c1.472 0 2.667 1.195 2.667 2.667 0 1.473-1.195 2.667-2.667 2.667h-19.997c-1.472 0-2.669 1.199-2.669 2.671v10.685c0 1.472-1.195 2.667-2.667 2.667"/><path d="M81.887 30.961h-36c-1.472 0-2.667-1.195-2.667-2.667 0-1.472 1.195-2.667 2.667-2.667h36c1.472 0 2.667 1.195 2.667 2.667 0 1.472-1.195 2.667-2.667 2.667"/><path d="M125.887 36.669c-1.472 0-2.667-1.195-2.667-2.667 0-1.677-1.364-3.041-3.041-3.041h-20.959c-1.472 0-2.667-1.195-2.667-2.667 0-1.473 1.195-2.667 2.667-2.667h20.959c4.619 0 8.375 3.756 8.375 8.375 0 1.472-1.195 2.667-2.667 2.667"/><path d="M112.731 150.983h-95.028c-8.724 0-15.823-7.097-15.823-15.823v-26.604c0-1.473 1.195-2.667 2.667-2.667 1.473 0 2.667 1.193 2.667 2.667v26.604c0 5.784 4.707 10.489 10.489 10.489h95.028c5.784 0 10.489-4.705 10.489-10.489v-81.533h-24c-1.472 0-2.667-1.193-2.667-2.667 0-1.472 1.195-2.667 2.667-2.667h29.333v86.867c0 8.725-7.097 15.823-15.823 15.823"/><path d="M81.887 53.628h-34.667c-1.472 0-2.667-1.195-2.667-2.667 0-1.472 1.195-2.667 2.667-2.667h34.667c1.472 0 2.667 1.195 2.667 2.667 0 1.472-1.195 2.667-2.667 2.667"/><path d="M4.547 88.069c-1.472 0-2.667-1.195-2.667-2.667v-37.108h28.007c1.472 0 2.667 1.193 2.667 2.667 0 1.472-1.195 2.667-2.667 2.667h-22.673v31.775c0 1.472-1.195 2.667-2.667 2.667"/><path d="M4.567 102.458c-1.472 0-2.667-1.195-2.667-2.667v-6.26c0-1.473 1.195-2.667 2.667-2.667 1.472 0 2.667 1.193 2.667 2.667v6.26c0 1.472-1.195 2.667-2.667 2.667"/><path d="M8.598 32.612c-.315 0-.565.116-.692.189-.205.117-.685.472-.685 1.188v11.116l11.92-6.592-9.86-5.711c-.245-.141-.477-.191-.683-.191m-4.044 19.683c-.469 0-.937-.124-1.355-.371-.813-.479-1.312-1.352-1.312-2.296v-15.639c0-2.427 1.255-4.599 3.356-5.809 2.103-1.211 4.611-1.208 6.711.008l13.936 8.071c.832.483 1.34 1.373 1.331 2.333-.009.961-.536 1.843-1.376 2.308l-20 11.061c-.401.223-.847.333-1.291.333"/><path d="M24.932 53.65c-1.472 0-2.667-1.195-2.667-2.667v-12c0-1.472 1.195-2.667 2.667-2.667 1.472 0 2.667 1.195 2.667 2.667v12c0 1.472-1.195 2.667-2.667 2.667"/><path d="M111.3 38.513l11.92 6.592v-12.753c0-.061 0-.248-.213-.371-.215-.123-.377-.031-.429.001l-11.277 6.531zm14.587 13.781c-.444 0-.888-.111-1.289-.333l-20-11.061c-.841-.465-1.368-1.347-1.377-2.307-.008-.961.499-1.852 1.331-2.333l15.355-8.893c1.807-1.047 3.963-1.047 5.765-.005 1.805 1.041 2.883 2.907 2.883 4.991v17.276c0 .944-.499 1.817-1.312 2.297-.416.245-.885.369-1.355.369z"/><path d="M104.932 53.65c-1.472 0-2.667-1.195-2.667-2.667v-12c0-1.472 1.195-2.667 2.667-2.667 1.472 0 2.667 1.195 2.667 2.667v12c0 1.472-1.195 2.667-2.667 2.667"/><path d="M112.554 124.892h-108c-1.472 0-2.667-1.195-2.667-2.667 0-1.472 1.195-2.667 2.667-2.667h108c1.472 0 2.667 1.195 2.667 2.667 0 1.472-1.195 2.667-2.667 2.667"/><path d="M65.436 1.65c-.236 0-.559.011-.788.024l-.552-.024c-18.097 0-33.831 14.953-33.831 32v20.667c0 4.779 3.888 8.667 8.667 8.667s8.667-3.888 8.667-8.667v-20.667c0-7.676 7.709-14.669 16.397-14.697l-.011.007.44.027.152.003.164-.003.48-.027.271-.007c8.688.028 16.773 7.021 16.773 14.697v20.667c0 4.779 3.888 8.667 8.667 8.667s8.667-3.888 8.667-8.667v-20.667c0-17.047-16.065-32-34.163-32m0 5.333c15.337 0 28.829 12.827 28.829 26.667v20.667c0 1.841-1.492 3.333-3.333 3.333-1.841 0-3.333-1.492-3.333-3.333v-20.667c0-10.439-10.135-20.031-22.163-20.031l-.788.036-.552-.036c-12.028 0-21.831 9.592-21.831 20.031v20.667c0 1.841-1.492 3.333-3.333 3.333-1.841 0-3.333-1.492-3.333-3.333v-20.667c0-13.84 13.113-26.667 28.451-26.667l.693.029.693-.029"/></g></g></svg>