<svg width="115" height="154" viewBox="0 0 115 154" xmlns="http://www.w3.org/2000/svg"><title>book</title><desc>Created with Sketch.</desc><g fill="#303438" fill-rule="nonzero"><path d="M34.171 144.392h-17.335c-8.085 0-14.665-6.58-14.665-14.667v-17.333c0-1.472 1.195-2.667 2.667-2.667 1.472 0 2.667 1.195 2.667 2.667v17.333c0 5.147 4.187 9.333 9.332 9.333h17.335c1.472 0 2.667 1.195 2.667 2.667 0 1.472-1.195 2.667-2.667 2.667"/><path d="M99.505 144.392h-42.668c-1.472 0-2.667-1.195-2.667-2.667 0-1.472 1.195-2.667 2.667-2.667h42.668c5.145 0 9.332-4.187 9.332-9.333v-22.667c0-1.472 1.195-2.667 2.667-2.667 1.473 0 2.667 1.195 2.667 2.667v22.667c0 8.087-6.58 14.667-14.665 14.667"/><path d="M99.505 133.725h-78.668c-1.472 0-2.667-1.195-2.667-2.667 0-1.472 1.195-2.667 2.667-2.667h78.668c5.145 0 9.332-4.187 9.332-9.333 0-1.472 1.195-2.667 2.667-2.667 1.473 0 2.667 1.195 2.667 2.667 0 8.087-6.58 14.667-14.665 14.667"/><path d="M7.504 132.893h-5.905v-57.633c0-1.473 1.195-2.667 2.667-2.667 1.473 0 2.667 1.193 2.667 2.667v46.027c2.667-2.099 6.363-3.06 9.904-3.06h82.669c5.145 0 8.76-4.487 8.76-9.633v-93.335c0-5.145-3.615-9.032-8.76-9.032h-82.669c-5.145 0-9.904 3.887-9.904 9.032v21.335c0 1.472-1.193 2.667-2.667 2.667-1.472 0-2.667-1.195-2.667-2.667v-21.335c0-8.087 7.152-14.365 15.237-14.365h82.669c8.085 0 14.093 6.279 14.093 14.365v93.335c0 8.087-6.008 14.967-14.093 14.967h-82.669c-5.145 0-9.332 4-9.332 9.333"/><path d="M4.266 64.592c-1.472 0-2.667-1.195-2.667-2.667v-13.333c0-1.472 1.195-2.667 2.667-2.667 1.472 0 2.667 1.195 2.667 2.667v13.333c0 1.472-1.195 2.667-2.667 2.667"/><path d="M79.504 120.392c-1.472 0-2.667-1.195-2.667-2.667v-104c0-1.472 1.195-2.667 2.667-2.667 1.472 0 2.667 1.195 2.667 2.667v104c0 1.472-1.195 2.667-2.667 2.667"/><path d="M96.838 111.058c-1.472 0-2.667-1.195-2.667-2.667v-102.667c0-1.472 1.195-2.667 2.667-2.667 1.472 0 2.667 1.195 2.667 2.667v102.667c0 1.472-1.195 2.667-2.667 2.667"/><path d="M46.17 143.058c.409 0 .817.093 1.193.281l6.807 3.404v-13.019h-16v13.019l6.807-3.404c.376-.188.784-.281 1.193-.281m10.667 10.667c-.408 0-.816-.093-1.193-.281l-9.473-4.737-9.473 4.737c-.828.413-1.808.369-2.596-.117-.785-.485-1.264-1.344-1.264-2.268v-20c0-1.472 1.195-2.667 2.667-2.667h21.333c1.472 0 2.667 1.195 2.667 2.667v20c0 .924-.479 1.783-1.264 2.268-.429.265-.916.399-1.403.399"/></g></svg>