<svg width="104" height="147" viewBox="0 0 104 147" xmlns="http://www.w3.org/2000/svg"><title>bulb</title><desc>Created with Sketch.</desc><g fill="#303438" fill-rule="nonzero"><path d="M51.908 146.829l-.147-.008c-12.073-.665-22.377-8.92-25.637-20.543-.397-1.417.429-2.889 1.848-3.287 1.416-.399 2.889.428 3.288 1.847 2.629 9.377 10.917 16.051 20.648 16.649 12.067-.741 21.496-10.745 21.496-22.841 0-4.979 1.44-22.423 4.785-26.529l.208-.255.261-.196c12.016-8.988 18.908-22.728 18.908-37.696 0-25.633-20.049-46.283-45.659-47.043-19.712.581-36.608 12.941-43.053 31.507-.484 1.392-2 2.127-3.395 1.644-1.391-.484-2.128-2.003-1.644-3.395 7.188-20.701 26.036-34.475 48.017-35.089l.075-.003.076.003c28.551.804 50.916 23.809 50.916 52.376 0 16.528-7.544 31.709-20.716 41.719-1.493 2.465-3.447 15.311-3.447 22.957 0 14.975-11.72 27.351-26.683 28.175l-.147.008z"/><path d="M27.304 113.559c-1.36 0-2.521-1.033-2.652-2.413-.823-8.619-2.156-13.952-2.936-15.336-6.425-4.852-11.709-11.203-15.299-18.393-1.348-2.7-2.468-5.536-3.328-8.431-.681-2.293-1.208-4.657-1.569-7.024-.221-1.456.78-2.816 2.236-3.037 1.444-.223 2.815.777 3.037 2.235.323 2.127.797 4.249 1.408 6.308.773 2.597 1.777 5.144 2.987 7.567 3.284 6.577 8.147 12.373 14.063 16.76l.28.208.217.273c2.523 3.167 3.787 13.897 4.213 18.364.14 1.467-.935 2.768-2.401 2.908l-.256.012"/><path d="M3.585 56.637c-1.472 0-2.667-1.195-2.667-2.667 0-2.017.116-4.052.343-6.047.167-1.464 1.489-2.513 2.952-2.347 1.463.167 2.513 1.488 2.347 2.951-.204 1.796-.308 3.627-.308 5.443 0 1.472-1.195 2.667-2.667 2.667"/><path d="M87.443 116.332h-71.067c-1.472 0-2.667-1.195-2.667-2.667 0-1.472 1.195-2.667 2.667-2.667h71.067c1.472 0 2.667 1.195 2.667 2.667 0 1.472-1.195 2.667-2.667 2.667"/><path d="M66.252 126.999h-28c-1.472 0-2.667-1.195-2.667-2.667 0-1.472 1.195-2.667 2.667-2.667h28c1.472 0 2.667 1.195 2.667 2.667 0 1.472-1.195 2.667-2.667 2.667"/><path d="M59.584 134.999h-14.667c-1.472 0-2.667-1.195-2.667-2.667 0-1.472 1.195-2.667 2.667-2.667h14.667c1.472 0 2.667 1.195 2.667 2.667 0 1.472-1.195 2.667-2.667 2.667"/><path d="M62.309 59.567h.013-.013zm-13.952 51.432h6.52l12.736-47.121c.213-.723.083-1.444-.331-1.995-.372-.496-.915-.803-1.529-.865-.605-.057-1.209.131-1.672.543l-6.72 5.973c-2.849 2.532-7.144 2.532-9.993-.001l-6.72-5.972c-.463-.412-1.061-.599-1.672-.543-.616.063-1.159.369-1.531.865-.413.551-.544 1.273-.347 1.933l.036.139 11.223 47.044zm10.603 5.333h-14.813l-12.185-51.077c-.639-2.248-.187-4.7 1.216-6.572 1.26-1.679 3.179-2.761 5.265-2.971 2.097-.208 4.181.468 5.749 1.861l6.72 5.972c.828.737 2.077.739 2.905.001l6.72-5.973c1.568-1.393 3.66-2.072 5.751-1.861 2.087.211 4.004 1.293 5.263 2.971 1.419 1.891 1.865 4.377 1.193 6.648l-13.784 51.001z"/></g></svg>