<svg width="128" height="146" viewBox="0 0 128 146" xmlns="http://www.w3.org/2000/svg"><title>calendar</title><desc>Created with Sketch.</desc><g fill="#303438" fill-rule="nonzero"><path d="M107.667 0h-87.599c-5.625 0-10.201 4.576-10.201 10.2v1.8c0 1.472 1.195 2.667 2.667 2.667 1.473 0 2.667-1.195 2.667-2.667v-1.8c0-2.684 2.184-4.867 4.868-4.867h87.599c2.684 0 4.867 2.183 4.867 4.867 0 1.472 1.195 2.667 2.667 2.667 1.473 0 2.667-1.195 2.667-2.667 0-5.624-4.575-10.2-10.2-10.2"/><path d="M115.363 9.333h-102.992c-6.528 0-11.837 5.311-11.837 11.837v37.496c0 1.472 1.193 2.667 2.667 2.667 1.472 0 2.667-1.195 2.667-2.667v-37.496c0-3.587 2.917-6.504 6.504-6.504h102.992c3.585 0 6.504 2.917 6.504 6.504v98.829c0 3.587-2.919 6.504-6.504 6.504h-8.163c-1.473 0-2.667 1.195-2.667 2.667 0 1.473 1.193 2.667 2.667 2.667h8.163c6.528 0 11.837-5.309 11.837-11.837v-98.829c0-6.527-5.309-11.837-11.837-11.837"/><path d="M89.867 126.505h-52c-1.472 0-2.667 1.195-2.667 2.667 0 1.472 1.195 2.667 2.667 2.667h52c1.472 0 2.667-1.195 2.667-2.667 0-1.472-1.195-2.667-2.667-2.667"/><path d="M3.363 80c-1.472 0-2.667 1.195-2.667 2.667v37.333c0 6.528 5.309 11.837 11.837 11.837h8c1.472 0 2.667-1.193 2.667-2.667 0-1.472-1.195-2.667-2.667-2.667h-8c-3.587 0-6.504-2.917-6.504-6.504v-37.333c0-1.472-1.195-2.667-2.667-2.667"/><path d="M115.201 90.667h-111.837c-1.472 0-2.667 1.195-2.667 2.667 0 1.472 1.195 2.667 2.667 2.667h111.837c1.472 0 2.667-1.195 2.667-2.667 0-1.472-1.195-2.667-2.667-2.667"/><path d="M124.534 90.667c-1.472 0-2.667 1.195-2.667 2.667v26.667c0 3.587-2.917 6.504-6.504 6.504h-5.496c-1.472 0-2.667 1.195-2.667 2.667 0 1.473 1.195 2.667 2.667 2.667h5.496c6.528 0 11.837-5.309 11.837-11.837v-26.667c0-1.472-1.195-2.667-2.667-2.667"/><path d="M3.201 64c-1.472 0-2.667 1.195-2.667 2.667v8c0 1.472 1.195 2.667 2.667 2.667 1.472 0 2.667-1.195 2.667-2.667v-8c0-1.472-1.195-2.667-2.667-2.667"/><path d="M29.201 140c-1.839 0-3.333-1.496-3.333-3.333v-18.667c0-1.837 1.495-3.333 3.333-3.333 1.839 0 3.333 1.496 3.333 3.333v18.667c0 1.837-1.495 3.333-3.333 3.333m0-30.667c-4.779 0-8.667 3.888-8.667 8.667v18.667c0 4.779 3.888 8.667 8.667 8.667s8.667-3.888 8.667-8.667v-18.667c0-4.779-3.888-8.667-8.667-8.667"/><path d="M98.534 140c-1.839 0-3.333-1.496-3.333-3.333v-18.667c0-1.837 1.495-3.333 3.333-3.333 1.839 0 3.333 1.496 3.333 3.333v18.667c0 1.837-1.495 3.333-3.333 3.333m0-30.667c-4.779 0-8.667 3.888-8.667 8.667v18.667c0 4.779 3.888 8.667 8.667 8.667s8.667-3.888 8.667-8.667v-18.667c0-4.779-3.888-8.667-8.667-8.667"/><path d="M105.867 61.333h-84c-1.472 0-2.667 1.195-2.667 2.667 0 1.472 1.195 2.667 2.667 2.667h84c1.472 0 2.667-1.195 2.667-2.667 0-1.472-1.195-2.667-2.667-2.667"/><path d="M105.867 41.333h-84c-1.472 0-2.667 1.195-2.667 2.667 0 1.472 1.195 2.667 2.667 2.667h84c1.472 0 2.667-1.195 2.667-2.667 0-1.472-1.195-2.667-2.667-2.667"/><path d="M33.867 29.333c-1.472 0-2.667 1.195-2.667 2.667v41.333c0 1.472 1.195 2.667 2.667 2.667 1.472 0 2.667-1.195 2.667-2.667v-41.333c0-1.472-1.195-2.667-2.667-2.667"/><path d="M53.867 29.333c-1.472 0-2.667 1.195-2.667 2.667v41.333c0 1.472 1.195 2.667 2.667 2.667 1.472 0 2.667-1.195 2.667-2.667v-41.333c0-1.472-1.195-2.667-2.667-2.667"/><path d="M73.867 29.333c-1.472 0-2.667 1.195-2.667 2.667v41.333c0 1.472 1.195 2.667 2.667 2.667 1.472 0 2.667-1.195 2.667-2.667v-41.333c0-1.472-1.195-2.667-2.667-2.667"/><path d="M93.867 29.333c-1.472 0-2.667 1.195-2.667 2.667v41.333c0 1.472 1.195 2.667 2.667 2.667 1.472 0 2.667-1.195 2.667-2.667v-41.333c0-1.472-1.195-2.667-2.667-2.667"/></g></svg>