<svg width="134" height="107" viewBox="0 0 134 107" xmlns="http://www.w3.org/2000/svg"><title>card</title><desc>Created with Sketch.</desc><g fill="#303438" fill-rule="nonzero"><path d="M106.129 106.421h-82.133c-5.661 0-10.267-4.605-10.267-10.267 0-1.473 1.195-2.667 2.667-2.667 1.473 0 2.667 1.193 2.667 2.667 0 2.72 2.213 4.933 4.933 4.933h82.133c2.72 0 4.933-2.213 4.933-4.933 0-1.473 1.195-2.667 2.667-2.667 1.473 0 2.667 1.193 2.667 2.667 0 5.661-4.605 10.267-10.267 10.267"/><path d="M120.243 95.755h-107.701c-6.732 0-12.153-8.107-12.153-14.819v-24.921c0-1.472 1.195-2.667 2.667-2.667 1.473 0 2.667 1.195 2.667 2.667v24.921c0 4.055 3.372 9.485 6.82 9.485h107.701c3.448 0 6.819-5.431 6.819-9.485v-67.675c0-3.76-3.059-6.82-6.819-6.82h-107.701c-3.761 0-6.82 3.06-6.82 6.82v30.859c0 1.473-1.193 2.667-2.667 2.667-1.472 0-2.667-1.193-2.667-2.667v-30.859c0-6.701 5.452-12.153 12.153-12.153h107.701c6.7 0 12.152 5.452 12.152 12.153v67.675c0 6.712-5.42 14.819-12.152 14.819"/><path d="M3.076 49.918c-1.472 0-2.667-1.195-2.667-2.667v-6.26c0-1.473 1.195-2.667 2.667-2.667 1.472 0 2.667 1.193 2.667 2.667v6.26c0 1.472-1.195 2.667-2.667 2.667"/><path d="M128.396 39.755h-125.333c-1.472 0-2.667-1.195-2.667-2.667 0-1.472 1.195-2.667 2.667-2.667h125.333c1.472 0 2.667 1.195 2.667 2.667 0 1.472-1.195 2.667-2.667 2.667"/><path d="M117.729 25.088h-112c-1.472 0-2.667-1.195-2.667-2.667 0-1.472 1.195-2.667 2.667-2.667h112c1.472 0 2.667 1.195 2.667 2.667 0 1.472-1.195 2.667-2.667 2.667"/><path d="M116.396 61.088h-61.333c-1.472 0-2.667-1.195-2.667-2.667 0-1.472 1.195-2.667 2.667-2.667h61.333c1.472 0 2.667 1.195 2.667 2.667 0 1.472-1.195 2.667-2.667 2.667"/><path d="M103.063 71.755h-48c-1.472 0-2.667-1.195-2.667-2.667 0-1.472 1.195-2.667 2.667-2.667h48c1.472 0 2.667 1.195 2.667 2.667 0 1.472-1.195 2.667-2.667 2.667"/><path d="M20.396 53.088c-1.471 0-2.667 1.196-2.667 2.667v17.333c0 1.471 1.196 2.667 2.667 2.667h17.333c1.471 0 2.667-1.196 2.667-2.667v-17.333c0-1.471-1.196-2.667-2.667-2.667h-17.333zm17.333 28h-17.333c-4.412 0-8-3.588-8-8v-17.333c0-4.412 3.588-8 8-8h17.333c4.412 0 8 3.588 8 8v17.333c0 4.412-3.588 8-8 8z"/></g></svg>