<svg width="133" height="124" viewBox="0 0 133 124" xmlns="http://www.w3.org/2000/svg"><title>cart</title><desc>Created with Sketch.</desc><g fill="#303438" fill-rule="nonzero"><path d="M19.473 90.08c-1.289 0-2.423-.937-2.631-2.251l-1.052-6.665c-.229-1.453.764-2.82 2.219-3.049 1.444-.223 2.821.764 3.049 2.219l1.053 6.664c.228 1.455-.764 2.821-2.22 3.051-.14.021-.28.032-.419.032"/><path d="M101.225 123.411h-67.089c-6.765 0-12.44-4.851-13.495-11.532l-1.903-12.051c-.229-1.453.763-2.82 2.219-3.049 1.448-.224 2.82.764 3.049 2.219l1.903 12.051c.643 4.072 4.103 7.029 8.227 7.029h67.089c4.125 0 7.584-2.957 8.228-7.029l9.06-57.387c.229-1.455 1.609-2.441 3.049-2.219 1.456.229 2.448 1.596 2.219 3.051l-9.06 57.385c-1.055 6.681-6.731 11.532-13.496 11.532"/><path d="M16.526 71.413c-1.289 0-2.423-.936-2.631-2.249l-2.107-13.339c-.229-1.456.764-2.821 2.217-3.051 1.456-.225 2.823.761 3.051 2.217l2.108 13.337c.228 1.456-.764 2.821-2.219 3.052-.141.021-.281.032-.42.032"/><path d="M87.421 31.411h-36c-1.472 0-2.667-1.195-2.667-2.667 0-1.472 1.195-2.667 2.667-2.667h36c1.472 0 2.667 1.195 2.667 2.667 0 1.472-1.195 2.667-2.667 2.667"/><path d="M122.33 55.458h-109.301c-5.828 0-10.941-5.007-10.941-10.713v-8c0-5.683 5.113-10.667 10.941-10.667h14.392c1.473 0 2.667 1.193 2.667 2.667 0 1.472-1.193 2.667-2.667 2.667h-14.392c-2.883 0-5.608 2.592-5.608 5.333v8c0 2.765 2.725 5.38 5.608 5.38h109.301c2.807 0 5.091-2.284 5.091-5.091v-8.532c0-2.807-2.284-5.091-5.091-5.091-1.472 0-2.667-1.195-2.667-2.667 0-1.473 1.195-2.667 2.667-2.667 5.749 0 10.424 4.676 10.424 10.424v8.532c0 5.748-4.675 10.424-10.424 10.424"/><path d="M33.77 43.411c-2.315 0-4.492-.903-6.129-2.539-1.635-1.636-2.537-3.813-2.537-6.128s.903-4.492 2.539-6.129l12.424-12.423c1.041-1.041 2.729-1.041 3.771 0 1.041 1.041 1.041 2.729 0 3.771l-12.424 12.424c-.629.631-.976 1.467-.976 2.357 0 .891.347 1.727.976 2.356 1.261 1.263 3.455 1.261 4.713.001l24.985-24.985c.631-.629.976-1.465.976-2.356 0-.891-.345-1.727-.976-2.356-1.26-1.263-3.455-1.261-4.712-.001-1.043 1.041-2.731 1.04-3.772.001-1.043-1.041-1.043-2.731-.001-3.772 1.636-1.637 3.813-2.539 6.128-2.539 2.316 0 4.492.901 6.129 2.539 1.636 1.636 2.537 3.812 2.537 6.128 0 2.315-.901 4.492-2.539 6.128l-24.984 24.984c-1.636 1.636-3.813 2.539-6.128 2.539"/><path d="M77.711 6.428c-.855 0-1.708.325-2.359.975-1.299 1.3-1.299 3.415 0 4.715l24.985 24.984c1.296 1.299 3.412 1.3 4.715 0v-.001c.631-.629.976-1.465.976-2.356 0-.891-.345-1.727-.976-2.355l-24.984-24.987c-.651-.649-1.504-.975-2.357-.975m24.983 36.983c-2.313 0-4.491-.9-6.127-2.539l-24.985-24.984c-3.379-3.379-3.379-8.877 0-12.256 3.379-3.381 8.88-3.38 12.257 0l24.984 24.985c1.637 1.635 2.539 3.812 2.539 6.127 0 2.316-.901 4.492-2.539 6.129-1.639 1.637-3.813 2.537-6.129 2.537"/><path d="M67.421 68.744c-1.471 0-2.667 1.196-2.667 2.667v30.667c0 1.471 1.196 2.667 2.667 2.667 1.471 0 2.667-1.196 2.667-2.667v-30.667c0-1.471-1.196-2.667-2.667-2.667m0 41.333c-4.412 0-8-3.588-8-8v-30.667c0-4.412 3.588-8 8-8s8 3.588 8 8v30.667c0 4.412-3.588 8-8 8"/><path d="M46.088 68.744c-1.471 0-2.667 1.196-2.667 2.667v30.667c0 1.471 1.196 2.667 2.667 2.667 1.471 0 2.667-1.196 2.667-2.667v-30.667c0-1.471-1.196-2.667-2.667-2.667m0 41.333c-4.412 0-8-3.588-8-8v-30.667c0-4.412 3.588-8 8-8s8 3.588 8 8v30.667c0 4.412-3.588 8-8 8"/><path d="M88.754 110.077c-4.412 0-8-3.588-8-8v-30.667c0-4.412 3.588-8 8-8s8 3.588 8 8v10.667c0 1.472-1.195 2.667-2.667 2.667-1.472 0-2.667-1.195-2.667-2.667v-10.667c0-1.471-1.196-2.667-2.667-2.667-1.471 0-2.667 1.196-2.667 2.667v30.667c0 1.471 1.196 2.667 2.667 2.667 1.471 0 2.667-1.196 2.667-2.667v-8c0-1.472 1.195-2.667 2.667-2.667 1.472 0 2.667 1.195 2.667 2.667v8c0 4.412-3.588 8-8 8"/></g></svg>