<svg width="144" height="134" viewBox="0 0 144 134" xmlns="http://www.w3.org/2000/svg" xmlns:xlink="http://www.w3.org/1999/xlink"><title>chat</title><desc>Created with Sketch.</desc><defs><path id="a" d="M.865 9.357h9.333v-9.333h-9.333z"/><path id="c" d="M.865 9.357h9.333v-9.333h-9.333z"/><path id="e" d="M.865 9.357h9.333v-9.333h-9.333z"/></defs><g fill="none"><path d="M121.531 56.816c-1.472 0-2.667-1.195-2.667-2.667 0-3.16-.369-6.316-1.1-9.383-5.239-21.991-28.327-37.951-54.9-37.951-16.139 0-31.5 5.897-42.147 16.179-1.06 1.024-2.748.996-3.771-.065-1.024-1.059-.995-2.748.064-3.771 11.633-11.233 28.347-17.676 45.853-17.676 29.013 0 54.284 17.684 60.087 42.048.828 3.471 1.247 7.044 1.247 10.619 0 1.472-1.195 2.667-2.667 2.667" fill="#303438" fill-rule="nonzero"/><path d="M13.904 112.341c-1.805 0-3.479-.96-4.389-2.564-1.021-1.801-.849-4.015.437-5.636 2.812-3.544 4.94-7.523 6.327-11.823l.961-2.981c-.693-.661-1.367-1.339-2.016-2.027-.433-.457-.86-.925-1.279-1.399-8.121-9.205-12.413-20.188-12.413-31.763 0-1.473 1.193-2.667 2.667-2.667 1.472 0 2.667 1.193 2.667 2.667 0 10.255 3.832 20.019 11.081 28.236.375.427.759.845 1.151 1.26.945 1.001 1.949 1.979 2.985 2.908l1.287 1.156-2.015 6.245c-1.515 4.697-3.803 9.056-6.808 12.967l5.217-.684c4.197-.552 8.241-1.797 12.019-3.701l9.403-4.74 1.055.353c6.592 2.212 13.531 3.333 20.625 3.333 1.472 0 2.667 1.193 2.667 2.667 0 1.472-1.195 2.667-2.667 2.667-7.291 0-14.435-1.097-21.255-3.261l-7.427 3.743c-4.313 2.175-8.932 3.597-13.727 4.228l-5.885.772c-.224.029-.447.044-.668.044" fill="#303438" fill-rule="nonzero"/><path d="M7.008 41.483c-.313 0-.632-.056-.943-.172-1.377-.521-2.073-2.06-1.552-3.439 1.1-2.911 2.509-5.759 4.187-8.463.773-1.252 2.413-1.639 3.671-.86 1.252.776 1.637 2.42.86 3.672-1.495 2.411-2.751 4.947-3.728 7.537-.404 1.067-1.417 1.724-2.495 1.724" fill="#303438" fill-rule="nonzero"/><path d="M115.891 121.543l6.536 3.295c2.399 1.209 4.967 2 7.632 2.349l1.367.18c-1.448-2.197-2.588-4.575-3.399-7.095l-1.509-4.676 1.287-1.156c6.273-5.639 9.727-12.984 9.727-20.681 0-10.957-7.077-21.095-18.471-26.456-5.325-2.507-11.387-3.832-17.529-3.832-19.849 0-36 13.587-36 30.288 0 3.225.601 6.399 1.784 9.432 4.865 12.475 18.615 20.855 34.216 20.855 4.577 0 9.055-.723 13.305-2.148l1.055-.355zm17.048 8.017h.013-.013zm.864 3.461c-.187 0-.373-.012-.561-.037l-3.879-.509c-3.26-.428-6.401-1.395-9.336-2.876l-4.567-2.301c-4.477 1.383-9.156 2.081-13.929 2.081-17.78 0-33.528-9.745-39.184-24.251-1.427-3.652-2.149-7.477-2.149-11.369 0-19.641 18.543-35.621 41.333-35.621 6.923 0 13.769 1.5 19.8 4.34 13.283 6.251 21.533 18.236 21.533 31.281 0 8.688-3.615 16.952-10.223 23.451l.46 1.427c.88 2.731 2.231 5.256 4.016 7.505 1.079 1.361 1.224 3.217.367 4.728-.761 1.345-2.168 2.152-3.681 2.152z" fill="#303438" fill-rule="nonzero"/><g transform="matrix(1 0 0 -1 114 98.84)"><mask id="b"><use xlink:href="#a"/></mask><path d="M10.198 4.69c0-2.577-2.089-4.667-4.667-4.667-2.577 0-4.667 2.089-4.667 4.667 0 2.577 2.089 4.667 4.667 4.667 2.577 0 4.667-2.089 4.667-4.667" fill="#303438" fill-rule="nonzero" mask="url(#b)"/></g><g transform="matrix(1 0 0 -1 96.667 98.84)"><mask id="d"><use xlink:href="#c"/></mask><path d="M10.198 4.69c0-2.577-2.089-4.667-4.667-4.667-2.577 0-4.667 2.089-4.667 4.667 0 2.577 2.089 4.667 4.667 4.667 2.577 0 4.667-2.089 4.667-4.667" fill="#303438" fill-rule="nonzero" mask="url(#d)"/></g><g transform="matrix(1 0 0 -1 79.333 98.84)"><mask id="f"><use xlink:href="#e"/></mask><path d="M10.198 4.69c0-2.577-2.089-4.667-4.667-4.667-2.577 0-4.667 2.089-4.667 4.667 0 2.577 2.089 4.667 4.667 4.667 2.577 0 4.667-2.089 4.667-4.667" fill="#303438" fill-rule="nonzero" mask="url(#f)"/></g></g></svg>