<svg width="115" height="145" viewBox="0 0 115 145" xmlns="http://www.w3.org/2000/svg"><title>coffee</title><desc>Created with Sketch.</desc><g fill="#303438" fill-rule="nonzero"><path d="M96.98 18.748c-1.127 0-2.173-.719-2.537-1.849-1.961-6.072-7.572-10.153-13.96-10.153h-46.667c-6.388 0-11.997 4.081-13.96 10.153-.452 1.401-1.947 2.168-3.357 1.717-1.401-.452-2.171-1.955-1.717-3.357 2.675-8.281 10.325-13.847 19.035-13.847h46.667c8.711 0 16.36 5.565 19.035 13.849.452 1.401-.316 2.904-1.719 3.356-.272.088-.548.131-.819.131"/><path d="M16.628 20.079c-5.963 0-10.812 4.851-10.812 10.812 0 .743.604 1.347 1.345 1.347h100.111c.743 0 1.347-.604 1.347-1.347 0-5.961-4.851-10.812-10.812-10.812h-81.179zm90.644 17.492h-100.111c-3.683 0-6.679-2.996-6.679-6.68 0-8.901 7.243-16.145 16.145-16.145h81.179c8.903 0 16.145 7.244 16.145 16.145 0 3.684-2.996 6.68-6.68 6.68z"/><path d="M77.879 144.118h-41.324c-7.723 0-14.151-5.792-14.953-13.472l-1.772-16.956c-.152-1.465.911-2.776 2.375-2.931 1.46-.144 2.776.911 2.929 2.376l1.773 16.955c.516 4.957 4.665 8.695 9.648 8.695h41.324c4.983 0 9.132-3.737 9.648-8.695l1.772-16.955c.153-1.464 1.463-2.519 2.931-2.376 1.464.155 2.527 1.465 2.375 2.931l-1.772 16.956c-.803 7.68-7.231 13.472-14.953 13.472"/><path d="M97.388 64.079l-.281-.015c-1.465-.153-2.527-1.464-2.375-2.929l2.461-23.564h-79.953l2.461 23.564c.153 1.465-.909 2.776-2.375 2.929-1.441.143-2.776-.909-2.929-2.375l-3.077-29.452h91.793l-3.077 29.452c-.143 1.369-1.3 2.389-2.648 2.389"/><path d="M13.575 97.42c-1.329 0-2.479-.992-2.643-2.345l-.532-4.376c-.177-1.463.864-2.792 2.325-2.969 1.457-.168 2.792.864 2.969 2.327l.531 4.376c.177 1.461-.863 2.792-2.325 2.968l-.325.02"/><path d="M92.482 116.079h-70.667c-4.925 0-8.761-3.26-9.327-7.929l-.496-4.099c-.177-1.463.864-2.791 2.327-2.968 1.439-.167 2.791.864 2.968 2.327l.496 4.099c.288 2.387 2.273 3.237 4.032 3.237h70.667c1.743 0 3.879-.848 4.169-3.237l4.691-38.696c.147-1.217-.22-2.393-1.033-3.311-.812-.917-1.935-1.423-3.161-1.423h-79.86c-1.227 0-2.349.505-3.163 1.423-.813.917-1.179 2.093-1.032 3.311l1.461 12.727c.168 1.461-.883 2.785-2.347 2.953-1.452.165-2.785-.883-2.953-2.347l-1.459-12.709c-.327-2.697.525-5.427 2.337-7.472 1.813-2.045 4.421-3.219 7.155-3.219h79.86c2.733 0 5.341 1.173 7.153 3.219 1.813 2.045 2.664 4.775 2.335 7.488l-4.689 38.697c-.565 4.669-4.457 7.929-9.464 7.929"/><path d="M75.107 89.39h.013-.013zm-7.247-12.26c.06 4.796-1.288 8.877-4.016 12.148-2.16 2.589-3.084 5.999-2.745 10.129.06.732.36 1.388.8 1.753.236.197.479.283.727.259l.495-.061c4.912-.771 8.925-5.991 9.325-12.141.316-4.86-1.447-9.397-4.585-12.087zm-5.32 29.627c-1.461 0-2.883-.52-4.056-1.499-1.537-1.281-2.521-3.255-2.7-5.413-.459-5.576.875-10.28 3.963-13.983 2.095-2.509 3.012-5.821 2.732-9.841-.129-1.877.721-3.62 2.224-4.551 1.336-.828 2.943-.851 4.3-.055 5.82 3.416 9.26 10.54 8.765 18.148-.569 8.721-6.385 15.899-13.832 17.064-.268.041-.527.075-.787.1-.203.021-.405.029-.609.029z"/><path d="M41.852 85.74c-.316 4.861 1.447 9.397 4.584 12.087-.057-4.796 1.289-8.879 4.017-12.148 2.16-2.589 3.085-5.997 2.745-10.129-.06-.731-.36-1.387-.801-1.753-.235-.196-.48-.28-.725-.259l-.477.061c-4.929.771-8.943 5.991-9.343 12.141zm6.141 13.201h.013-.013zm-.592 5.183c-.723 0-1.445-.193-2.108-.583-5.819-3.416-9.259-10.54-8.764-18.148.569-8.723 6.385-15.899 13.833-17.063.256-.041.52-.075.785-.101 1.664-.175 3.329.356 4.665 1.469 1.537 1.281 2.521 3.255 2.7 5.413.459 5.577-.875 10.281-3.964 13.984-2.093 2.508-3.011 5.82-2.731 9.841.129 1.879-.723 3.621-2.225 4.552-.684.423-1.436.635-2.192.635z"/></g></svg>