<svg width="146" height="126" viewBox="0 0 146 126" xmlns="http://www.w3.org/2000/svg"><title>cog</title><desc>Created with Sketch.</desc><g fill="none"><g fill="#303438" fill-rule="nonzero"><path d="M102.747 77.825h.013-.013zm-19.297-36.485c-6.747 0-13.012 3.088-17.191 8.471-5.931 7.643-5.931 18.737 0 26.38 4.179 5.384 10.444 8.471 17.191 8.471 6.747 0 13.012-3.087 17.191-8.471 5.932-7.643 5.932-18.737 0-26.38-4.179-5.383-10.444-8.471-17.191-8.471zm0 48.655c-8.405 0-16.208-3.839-21.404-10.535-7.403-9.537-7.403-23.381 0-32.919 5.196-6.695 12.997-10.535 21.403-10.535 8.407 0 16.209 3.84 21.405 10.533 7.403 9.537 7.403 23.383 0 32.92-5.196 6.696-12.999 10.535-21.404 10.535zm-18.417 35.089c-1.327 0-2.673-.229-3.984-.705-.883-.321-1.756-.66-2.624-1.02-5.06-2.089-7.895-7.369-6.895-12.84.277-1.507.267-3.032-.029-4.536-.284-1.445.656-2.848 2.101-3.132 1.448-.284 2.845.656 3.131 2.1.428 2.165.441 4.361.043 6.529-.543 2.971.972 5.829 3.685 6.951.799.329 1.601.641 2.411.936 2.696.981 5.675.023 7.232-2.327 3.235-4.877 8.655-7.789 14.497-7.789 5.544 0 10.805 2.677 14.075 7.161 1.731 2.373 4.596 3.28 7.14 2.257.948-.381 1.888-.788 2.816-1.22 2.557-1.187 4.013-3.908 3.54-6.617-.973-5.584.836-11.308 4.84-15.312 3.867-3.865 9.408-5.7 14.829-4.908 2.779.409 5.511-1.107 6.628-3.684.401-.927.777-1.86 1.131-2.801.965-2.58.02-5.501-2.353-7.267-4.4-3.272-7.027-8.493-7.027-13.967 0-5.544 2.555-10.629 7.004-13.949 2.363-1.763 3.291-4.673 2.311-7.241-.353-.919-.728-1.835-1.128-2.741-1.144-2.604-3.911-4.091-6.715-3.623-5.547.929-11.231-.885-15.2-4.857-4.036-4.033-5.835-9.799-4.813-15.423.509-2.803-.967-5.579-3.588-6.749-.804-.36-1.613-.7-2.427-1.021-2.703-1.065-5.745-.104-7.401 2.34-3.244 4.787-8.627 7.644-14.399 7.644-5.881 0-11.32-2.941-14.549-7.868-1.577-2.408-4.677-3.415-7.363-2.391-.736.28-1.471.576-2.201.887-2.725 1.163-4.3 4.099-3.661 6.829 1.38 5.908-.355 11.991-4.637 16.273-4.283 4.283-10.364 6.015-16.273 4.637-2.725-.643-5.673.937-6.844 3.667-.296.692-.577 1.388-.847 2.087-1.057 2.745.007 5.876 2.529 7.445 5.149 3.203 8.225 8.732 8.225 14.792 0 1.472-1.193 2.667-2.667 2.667-1.472 0-2.667-1.195-2.667-2.667 0-4.204-2.133-8.04-5.708-10.263-4.695-2.919-6.667-8.761-4.691-13.891.293-.763.6-1.52.924-2.273 2.209-5.155 7.663-7.995 12.957-6.757 4.095.956 8.319-.244 11.289-3.215 2.971-2.969 4.172-7.191 3.215-11.289-1.239-5.303 1.604-10.748 6.763-12.948.793-.339 1.593-.661 2.396-.967 5.012-1.907 10.78-.033 13.721 4.452 2.24 3.419 6.011 5.459 10.088 5.459 4.001 0 7.733-1.983 9.984-5.304 3.068-4.527 8.731-6.299 13.775-4.307.888.351 1.768.72 2.644 1.112 4.869 2.175 7.609 7.345 6.66 12.572-.708 3.901.537 7.901 3.336 10.699 2.755 2.755 6.696 4.016 10.547 3.368 5.216-.872 10.349 1.892 12.479 6.735.435.987.844 1.983 1.228 2.984 1.841 4.824.193 10.216-4.101 13.421-3.089 2.304-4.861 5.829-4.861 9.675 0 3.852 1.777 7.383 4.876 9.687 4.299 3.197 5.972 8.589 4.165 13.417-.384 1.027-.795 2.044-1.232 3.052-2.075 4.784-7.131 7.596-12.295 6.84-3.812-.557-7.565.681-10.285 3.401-2.777 2.779-4.032 6.751-3.355 10.625.885 5.083-1.808 10.169-6.549 12.371-1.013.471-2.037.915-3.069 1.331-4.769 1.923-10.295.251-13.443-4.063-2.269-3.113-5.921-4.971-9.765-4.971-4.049 0-7.808 2.02-10.052 5.404-2.163 3.259-5.76 5.096-9.516 5.096z"/><path d="M29.734 119.942c-8.089 0-16.001-3.367-21.691-9.675-.985-1.093-.899-2.779.195-3.767 1.095-.984 2.78-.899 3.767.195 6.984 7.745 18.077 10.067 27.595 5.783 5.829-2.624 10.285-7.36 12.551-13.337 2.267-5.976 2.068-12.477-.555-18.307-.941-2.087-2.165-4.02-3.64-5.745-1.796-2.097-3.927-3.855-6.337-5.224-3.059-1.739-6.525-2.8-10.025-3.071-3.964-.303-7.991.403-11.643 2.045-8.721 3.928-14.259 12.645-14.108 22.212.024 1.472-1.152 2.685-2.625 2.708h-.043c-1.453 0-2.641-1.165-2.665-2.624-.185-11.696 6.587-22.357 17.252-27.159 4.464-2.009 9.391-2.872 14.24-2.5 4.279.329 8.516 1.627 12.253 3.751 2.947 1.675 5.556 3.825 7.753 6.393 1.807 2.112 3.303 4.475 4.451 7.024 3.208 7.127 3.451 15.077.68 22.387-2.769 7.308-8.221 13.101-15.348 16.311-3.891 1.751-7.996 2.6-12.056 2.6"/><path d="M26.871 99.634c-.683 0-1.364-.26-1.885-.781l-5.833-5.833c-1.041-1.041-1.041-2.729 0-3.771 1.041-1.041 2.729-1.041 3.771 0l3.948 3.947 12.281-12.28c1.041-1.041 2.729-1.041 3.771 0 1.041 1.041 1.041 2.729 0 3.771l-14.167 14.167c-.521.521-1.203.781-1.885.781"/></g></g></svg>