<svg width="126" height="127" viewBox="0 0 126 127" xmlns="http://www.w3.org/2000/svg"><title>desktop</title><desc>Created with Sketch.</desc><g fill="none"><g fill="#303438" fill-rule="nonzero"><path d="M103.352 126.945h-81.921c-5.675 0-10.291-4.616-10.291-10.291 0-1.472 1.193-2.667 2.667-2.667 1.472 0 2.667 1.195 2.667 2.667 0 2.733 2.224 4.957 4.957 4.957h81.921c2.735 0 4.959-2.224 4.959-4.957 0-1.472 1.193-2.667 2.667-2.667 1.472 0 2.667 1.195 2.667 2.667 0 5.675-4.617 10.291-10.292 10.291"/><path d="M3.14 72.274c-1.472 0-2.667-1.195-2.667-2.667v-12c0-1.472 1.195-2.667 2.667-2.667 1.472 0 2.667 1.195 2.667 2.667v12c0 1.472-1.195 2.667-2.667 2.667"/><path d="M112.473 117.608h-100.163c-6.528 0-11.837-5.311-11.837-11.837v-25.497c0-1.472 1.195-2.667 2.667-2.667 1.472 0 2.667 1.195 2.667 2.667v25.497c0 3.587 2.917 6.504 6.504 6.504h100.163c3.585 0 6.504-2.917 6.504-6.504v-92.325c0-3.587-2.919-6.504-6.504-6.504h-100c-3.613 0-6.667 2.979-6.667 6.504v34.828c0 1.473-1.195 2.667-2.667 2.667-1.472 0-2.667-1.193-2.667-2.667v-34.828c0-6.527 5.383-11.837 12-11.837h100c6.528 0 11.837 5.311 11.837 11.837v92.325c0 6.527-5.309 11.837-11.837 11.837"/><path d="M108.311 28.274h-105.333c-1.472 0-2.667-1.195-2.667-2.667 0-1.472 1.195-2.667 2.667-2.667h105.333c1.472 0 2.667 1.195 2.667 2.667 0 1.472-1.195 2.667-2.667 2.667"/><path d="M16.311 13.608c-.736 0-1.333.599-1.333 1.333 0 .735.597 1.333 1.333 1.333s1.333-.599 1.333-1.333c0-.735-.597-1.333-1.333-1.333m0 5.333c-2.205 0-4-1.795-4-4s1.795-4 4-4 4 1.795 4 4-1.795 4-4 4"/><path d="M28.311 13.608c-.736 0-1.333.599-1.333 1.333 0 .735.597 1.333 1.333 1.333s1.333-.599 1.333-1.333c0-.735-.597-1.333-1.333-1.333m0 5.333c-2.205 0-4-1.795-4-4s1.795-4 4-4 4 1.795 4 4-1.795 4-4 4"/><path d="M40.311 13.608c-.736 0-1.333.599-1.333 1.333 0 .735.597 1.333 1.333 1.333s1.333-.599 1.333-1.333c0-.735-.597-1.333-1.333-1.333m0 5.333c-2.205 0-4-1.795-4-4s1.795-4 4-4 4 1.795 4 4-1.795 4-4 4"/><path d="M39.097 86.941c-.683 0-1.364-.26-1.885-.781l-10.691-10.689c-2.943-2.944-2.943-7.733 0-10.676l10.691-10.689c1.041-1.043 2.729-1.043 3.771 0 1.041 1.04 1.041 2.729 0 3.771l-10.691 10.689c-.863.864-.863 2.271 0 3.135l10.691 10.689c1.041 1.041 1.041 2.729 0 3.771-.521.521-1.203.781-1.885.781"/><path d="M85.644 86.941c-.683 0-1.364-.26-1.885-.781-1.041-1.041-1.041-2.729 0-3.771l10.691-10.689c.863-.864.863-2.271 0-3.135l-10.691-10.689c-1.041-1.041-1.041-2.731 0-3.771 1.041-1.043 2.729-1.043 3.771 0l10.691 10.689c2.943 2.943 2.943 7.732 0 10.676l-10.691 10.689c-.521.521-1.203.781-1.885.781"/><path d="M52.309 96.258c-.343 0-.692-.067-1.028-.207-1.357-.568-2-2.129-1.432-3.488l18.667-44.667c.571-1.359 2.132-2 3.489-1.433 1.359.568 2 2.129 1.433 3.489l-18.667 44.667c-.429 1.023-1.42 1.639-2.463 1.639"/></g></g></svg>