<svg width="132" height="123" viewBox="0 0 132 123" xmlns="http://www.w3.org/2000/svg"><title>diamond</title><desc>Created with Sketch.</desc><g fill="#303438" fill-rule="nonzero"><path d="M66.244 122.706h-.001c-2.519 0-4.808-1.172-6.283-3.213l-29.671-41.109c-.861-1.196-.592-2.863.601-3.724 1.197-.86 2.861-.591 3.724.601l29.669 41.109c.46.637 1.173 1.003 1.96 1.003.785 0 1.5-.364 1.96-1.001l57.092-79.037c.623-.863.613-2.013-.024-2.865l-20.453-27.343c-.455-.608-1.177-.969-1.936-.969h-73.283c-.759 0-1.481.361-1.935.967l-20.449 27.276c-.637.849-.648 2.001-.025 2.864l9.14 12.664c.863 1.195.593 2.861-.601 3.724-1.196.861-2.86.589-3.724-.601l-9.14-12.667c-1.995-2.765-1.963-6.456.083-9.185l20.449-27.275c1.456-1.941 3.775-3.1 6.203-3.1h73.283c2.432 0 4.752 1.163 6.207 3.109l20.455 27.343c2.041 2.731 2.071 6.419.075 9.18l-57.092 79.039c-1.475 2.041-3.764 3.212-6.283 3.212"/><path d="M26.687 71.496c-.828 0-1.643-.384-2.165-1.105l-4.815-6.672c-.863-1.195-.593-2.861.601-3.724 1.199-.86 2.861-.589 3.724.601l4.815 6.672c.863 1.196.592 2.863-.601 3.724-.473.34-1.019.504-1.559.504"/><path d="M67.053 117.649h.013-.013zm-.808 5.057c-1.975 0-3.664-1.455-4.519-3.892l-27.709-79.109c-.836-2.385-.823-5.455.036-7.817l7.753-21.309c.504-1.385 2.04-2.097 3.419-1.595 1.384.504 2.097 2.033 1.595 3.417l-7.753 21.309c-.435 1.196-.443 3.016-.016 4.231l27.195 77.636 27.192-77.565c.425-1.215.421-3.033-.015-4.228l-7.76-21.376c-.503-1.384.212-2.913 1.596-3.416 1.388-.503 2.916.212 3.417 1.596l7.76 21.375c.859 2.361.871 5.428.035 7.815l-27.709 79.039c-.855 2.436-2.543 3.891-4.516 3.891z"/><path d="M116.313 37.893h-113.333c-1.472 0-2.667-1.195-2.667-2.667 0-1.472 1.195-2.667 2.667-2.667h113.333c1.472 0 2.667 1.195 2.667 2.667 0 1.472-1.195 2.667-2.667 2.667"/></g></svg>