<svg width="134" height="112" viewBox="0 0 134 112" xmlns="http://www.w3.org/2000/svg"><title>folder</title><desc>Created with Sketch.</desc><g fill="none"><g fill="#303438" fill-rule="nonzero"><path d="M21.061 9.226h.001-.001zm39.167 0h-.001.001zm-.008 0h-.001.001zm-39.151 0h.001-.001zm39.143 0h-.003.003zm-39.135 0h.003-.003zm.008 0h.003-.003zm39.119 0h-.003.003zm-39.113 0h.005-.005zm39.108 0h-.005.005zm-39.101 0l.187.009-.187-.009zm39.095 0l-.187.009.187-.009zm-38.903.011h.001-.001zm38.711 0h-.001.001zm-52.733 22.656c-1.473 0-2.667-1.195-2.667-2.667v-10.667c0-5.321 4.011-9.333 9.269-9.333h4.129c.311-4.463 4.069-8 8.645-8h28c4.577 0 8.336 3.537 8.647 8h57.463c4.913 0 9.18 4.361 9.18 9.333v2.667c0 1.472-1.195 2.667-2.667 2.667-1.473 0-2.667-1.195-2.667-2.667v-2.667c0-2.019-1.884-4-3.847-4h-60.519c-1.473 0-2.667-1.195-2.667-2.667 0-.487.131-.944.359-1.337.028-.213.051-.497.051-.732 0-1.831-1.463-3.264-3.333-3.264h-28c-1.869 0-3.333 1.433-3.333 3.264 0 .235.024.519.052.732.228.393.359.851.359 1.337 0 1.472-1.193 2.667-2.667 2.667h-7.185c-1.795 0-3.936 1.048-3.936 4v10.667c0 1.472-1.195 2.667-2.667 2.667z"/><path d="M16.645 33.585c-1.472 0-2.667-1.195-2.667-2.667v-7.933c0-2.977 2.423-5.4 5.401-5.4h95.376c3.248 0 5.889 2.641 5.889 5.889v6.111c0 1.472-1.195 2.667-2.667 2.667-1.472 0-2.667-1.195-2.667-2.667v-6.111c0-.307-.249-.556-.556-.556h-95.376l-.068 8c0 1.472-1.195 2.667-2.667 2.667"/><path d="M6.517 70.919c-1.371 0-2.536-1.051-2.655-2.441l-.34-4c-.124-1.468.965-2.759 2.432-2.883 1.463-.125 2.757.963 2.883 2.431l.34 4.001c.124 1.467-.965 2.757-2.432 2.883l-.228.009"/><path d="M114.233 110.919h-93.844c-7.324 0-13.347-5.5-14.011-12.793l-1.725-20.315c-.123-1.467.965-2.757 2.433-2.883 1.477-.127 2.757.964 2.883 2.432l1.724 20.297c.409 4.513 4.149 7.928 8.696 7.928h93.844c4.547 0 8.287-3.415 8.697-7.944l5.129-60.416c.088-.957-.216-1.86-.855-2.557-.636-.699-1.507-1.083-2.452-1.083h-114.883c-.945 0-1.817.384-2.453 1.083-.639.697-.941 1.6-.856 2.541l1.372 17.501c.115 1.468-.981 2.752-2.451 2.867-1.475.113-2.752-.983-2.867-2.451l-1.369-17.468c-.216-2.383.595-4.796 2.232-6.588 1.635-1.791 3.965-2.819 6.392-2.819h114.883c2.425 0 4.756 1.028 6.392 2.819 1.636 1.792 2.448 4.205 2.228 6.621l-5.128 60.417c-.665 7.309-6.688 12.809-14.012 12.809"/></g></g></svg>