<svg width="123" height="122" viewBox="0 0 123 122" xmlns="http://www.w3.org/2000/svg"><title>help</title><desc>Created with Sketch.</desc><g fill="none"><g fill="#303438" fill-rule="nonzero"><path d="M26.215 119.635c-6.028 0-12.016-2.324-16.524-6.832-7.796-7.796-9.059-20.128-3-29.321.812-1.231 2.464-1.571 3.695-.76 1.229.811 1.569 2.465.759 3.695-4.672 7.089-3.696 16.601 2.319 22.616 6.089 6.088 15.676 7.015 22.796 2.196 1.22-.824 2.877-.505 3.704.715.825 1.22.504 2.877-.715 3.703-3.959 2.679-8.508 3.989-13.033 3.989"/><path d="M96.87 119.616c-4.944 0-9.9-1.552-14.063-4.712-1.172-.891-1.401-2.564-.511-3.736.891-1.172 2.561-1.403 3.737-.512 7.116 5.405 17.26 4.708 23.595-1.624 6.016-6.016 6.991-15.528 2.316-22.617-.811-1.231-.472-2.884.759-3.695 1.229-.811 2.883-.471 3.695.757 6.06 9.195 4.8 21.528-2.999 29.325-4.507 4.508-10.508 6.813-16.529 6.813"/><path d="M114.171 39.615c-.504 0-1.013-.141-1.465-.44-1.229-.809-1.568-2.464-.759-3.693 4.671-7.091 3.696-16.603-2.317-22.616-3.205-3.204-7.461-5.072-11.985-5.257-1.471-.06-2.615-1.303-2.555-2.773.06-1.471 1.277-2.609 2.775-2.556 5.864.241 11.383 2.661 15.536 6.815 7.796 7.796 9.057 20.128 3 29.321-.512.779-1.363 1.2-2.229 1.2"/><path d="M8.922 39.618c-.867 0-1.716-.421-2.229-1.199-6.06-9.195-4.799-21.528 2.999-29.325 7.417-7.416 18.951-8.969 28.052-3.779 1.279.729 1.724 2.359.995 3.637-.732 1.279-2.36 1.724-3.637.996-7.019-4.003-15.916-2.804-21.639 2.917-6.015 6.015-6.989 15.528-2.316 22.617.809 1.231.471 2.884-.759 3.695-.452.297-.961.44-1.465.44"/><path d="M45.281 30.853c-.683 0-1.364-.26-1.885-.781l-15.085-15.085c-1.041-1.041-1.041-2.729 0-3.771 1.043-1.041 2.729-1.041 3.772 0l15.084 15.085c1.041 1.041 1.041 2.729 0 3.771-.521.521-1.203.781-1.885.781"/><path d="M28.311 47.823c-.683 0-1.364-.26-1.885-.781l-15.085-15.084c-1.041-1.041-1.041-2.731 0-3.772 1.043-1.041 2.729-1.041 3.772 0l15.084 15.085c1.041 1.041 1.041 2.729 0 3.771-.521.521-1.203.781-1.885.781"/><path d="M109.409 94.979c-.683 0-1.364-.26-1.885-.781l-15.087-15.084c-1.041-1.041-1.041-2.731 0-3.772 1.043-1.041 2.729-1.041 3.772 0l15.085 15.085c1.041 1.041 1.041 2.729 0 3.771-.521.521-1.203.781-1.885.781"/><path d="M92.438 111.95c-.683 0-1.364-.26-1.885-.781l-15.085-15.085c-1.041-1.041-1.041-2.729 0-3.771 1.043-1.041 2.729-1.041 3.772 0l15.084 15.085c1.041 1.041 1.041 2.729 0 3.771-.521.521-1.203.781-1.885.781"/><path d="M31.132 112.885c-.683 0-1.364-.26-1.885-.781-1.041-1.041-1.041-2.729 0-3.771l15.084-15.085c1.043-1.041 2.729-1.041 3.772 0 1.041 1.041 1.041 2.731 0 3.772l-15.085 15.084c-.521.521-1.203.781-1.885.781"/><path d="M13.219 94.972c-.683 0-1.364-.26-1.885-.781-1.041-1.041-1.041-2.729 0-3.771l15.084-15.085c1.043-1.041 2.729-1.041 3.772 0 1.041 1.041 1.041 2.731 0 3.772l-15.085 15.084c-.521.521-1.203.781-1.885.781"/><path d="M94.869 49.148c-.683 0-1.364-.26-1.885-.781-1.041-1.041-1.041-2.729 0-3.771l15.084-15.085c1.043-1.041 2.729-1.041 3.772 0 1.041 1.041 1.041 2.731 0 3.772l-15.085 15.084c-.521.521-1.203.781-1.885.781"/><path d="M76.956 31.235c-.683 0-1.364-.26-1.885-.781-1.041-1.041-1.041-2.729 0-3.771l15.084-15.085c1.043-1.041 2.729-1.041 3.772 0 1.041 1.041 1.041 2.729 0 3.771l-15.085 15.085c-.521.521-1.203.781-1.885.781"/><path d="M85.823 85.697h.013-.013zm-24.513-56.513c-8.548 0-16.583 3.329-22.627 9.373-6.045 6.044-9.373 14.08-9.373 22.627 0 8.548 3.328 16.584 9.373 22.628 6.044 6.044 14.079 9.372 22.627 9.372 8.547 0 16.584-3.328 22.628-9.372 12.476-12.477 12.476-32.779 0-45.255-6.044-6.044-14.081-9.373-22.628-9.373zm0 69.333c-9.972 0-19.348-3.883-26.399-10.935-7.052-7.052-10.935-16.427-10.935-26.399 0-9.972 3.883-19.347 10.935-26.399 7.051-7.051 16.427-10.935 26.399-10.935 9.972 0 19.347 3.884 26.399 10.935 14.556 14.556 14.556 38.241 0 52.797-7.052 7.052-16.427 10.935-26.399 10.935zm-.001 22.639c-15.364 0-30.729-5.848-42.425-17.545-4.747-4.747-8.629-10.187-11.54-16.168-2.363-4.853-4.057-10.016-5.039-15.344-.256-1.396-.463-2.804-.619-4.187-.363-3.236-.463-6.521-.299-9.765.075-1.471 1.287-2.584 2.797-2.528 1.471.075 2.604 1.328 2.528 2.799-.149 2.955-.057 5.949.273 8.9.143 1.261.331 2.545.564 3.817.895 4.852 2.437 9.555 4.588 13.973 2.653 5.449 6.191 10.405 10.516 14.732 21.315 21.315 55.996 21.312 77.311 0 10.327-10.325 16.012-24.053 16.012-38.656 0-14.601-5.685-28.329-16.012-38.655-21.315-21.315-55.996-21.312-77.311 0-6.457 6.457-11.224 14.471-13.784 23.172-.416 1.413-1.9 2.221-3.311 1.805-1.413-.416-2.221-1.897-1.807-3.311 2.813-9.555 8.044-18.352 15.131-25.439 23.392-23.392 61.459-23.395 84.853 0 11.333 11.332 17.573 26.4 17.573 42.427s-6.24 31.095-17.573 42.427c-11.697 11.697-27.061 17.545-42.428 17.545z"/></g></g></svg>