<svg width="98" height="154" viewBox="0 0 98 154" xmlns="http://www.w3.org/2000/svg"><title>id</title><desc>Created with Sketch.</desc><g fill="none"><g fill="#303438" fill-rule="nonzero"><path d="M77.957 154h-58.667c-4.485 0-8-3.515-8-8v-2.667c0-1.472 1.195-2.667 2.667-2.667 1.472 0 2.667 1.195 2.667 2.667v2.667c0 1.521 1.145 2.667 2.667 2.667h58.667c1.347 0 2.667-1.683 2.667-3.396v-3.271c0-1.472 1.195-2.667 2.667-2.667 1.472 0 2.667 1.195 2.667 2.667v3.271c0 4.216-3.215 8.729-8 8.729"/><path d="M3.453 94c-1.472 0-2.667-1.195-2.667-2.667v-12c0-1.472 1.195-2.667 2.667-2.667 1.472 0 2.667 1.195 2.667 2.667v12c0 1.472-1.195 2.667-2.667 2.667"/><path d="M84.786 144.667h-72.163c-6.528 0-11.837-5.309-11.837-11.837v-30.829c0-1.472 1.195-2.667 2.667-2.667 1.472 0 2.667 1.195 2.667 2.667v30.829c0 3.587 2.917 6.504 6.504 6.504h72.163c3.585 0 6.504-2.917 6.504-6.504v-97.659c0-3.587-2.919-6.504-6.504-6.504h-28.163c-1.473 0-2.667-1.195-2.667-2.667 0-1.472 1.193-2.667 2.667-2.667h28.163c6.528 0 11.837 5.309 11.837 11.837v97.659c0 6.528-5.309 11.837-11.837 11.837"/><path d="M3.453 72.667c-1.472 0-2.667-1.195-2.667-2.667v-34.829c0-6.528 5.383-11.837 12-11.837h29.171c1.472 0 2.667 1.195 2.667 2.667 0 1.472-1.195 2.667-2.667 2.667h-29.171c-3.613 0-6.667 2.977-6.667 6.504v34.829c0 1.472-1.195 2.667-2.667 2.667"/><path d="M48.623 98c-11.763 0-21.333-9.571-21.333-21.333 0-11.763 9.571-21.333 21.333-21.333 3.425 0 6.832.832 9.849 2.405 2.067 1.077 3.933 2.479 5.549 4.163 1.019 1.064.984 2.751-.079 3.771s-2.751.984-3.771-.079c-1.213-1.265-2.616-2.317-4.167-3.125-2.292-1.196-4.775-1.801-7.383-1.801-8.823 0-16 7.177-16 16s7.177 16 16 16 16-7.177 16-16c0-2.136-.413-4.207-1.227-6.157-.568-1.36.075-2.921 1.433-3.488 1.361-.568 2.921.073 3.488 1.433 1.088 2.605 1.639 5.367 1.639 8.212 0 11.763-9.571 21.333-21.333 21.333"/><path d="M67.29 116.667h-45.333c-1.472 0-2.667-1.195-2.667-2.667 0-1.472 1.195-2.667 2.667-2.667h45.333c1.472 0 2.667 1.195 2.667 2.667 0 1.472-1.195 2.667-2.667 2.667"/><path d="M48.623 127.333h-26.667c-1.472 0-2.667-1.195-2.667-2.667 0-1.472 1.195-2.667 2.667-2.667h26.667c1.472 0 2.667 1.195 2.667 2.667 0 1.472-1.195 2.667-2.667 2.667"/><path d="M59.29 42h-20v-36c0-3.009 1.987-5.367 4.524-5.367h10.952c2.537 0 4.524 2.357 4.524 5.367v9.333c0 1.472-1.195 2.667-2.667 2.667-1.472 0-2.667-1.195-2.667-2.667v-9.366h-9.333v30.700000000000003h9.333v-10.667c0-1.472 1.195-2.667 2.667-2.667 1.472 0 2.667 1.195 2.667 2.667v16z"/><path d="M41.957 76.667c0 1.473-1.195 2.667-2.667 2.667-1.473 0-2.667-1.193-2.667-2.667 0-1.473 1.193-2.667 2.667-2.667 1.472 0 2.667 1.193 2.667 2.667"/><path d="M60.623 76.667c0 1.473-1.195 2.667-2.667 2.667-1.473 0-2.667-1.193-2.667-2.667 0-1.473 1.193-2.667 2.667-2.667 1.472 0 2.667 1.193 2.667 2.667"/><path d="M44.804 80.667h7.639c.775 0 1.285.797.967 1.504-.713 1.577-2.187 3.829-4.785 3.829-2.6 0-4.073-2.252-4.787-3.829-.319-.707.192-1.504.967-1.504"/></g></g></svg>