<svg width="146" height="105" viewBox="0 0 146 105" xmlns="http://www.w3.org/2000/svg"><title>mail</title><desc>Created with Sketch.</desc><g fill="#303438" fill-rule="nonzero"><path d="M128.379 104.108h-112.361c-8.724 0-15.823-7.099-15.823-15.823v-26.604c0-1.473 1.195-2.667 2.667-2.667 1.473 0 2.667 1.193 2.667 2.667v26.604c0 5.784 4.707 10.489 10.489 10.489h112.361c5.784 0 10.489-4.705 10.489-10.489v-71.043c0-5.784-4.705-10.491-10.489-10.491h-112.361c-5.783 0-10.489 4.707-10.489 10.491v21.284c0 1.473-1.193 2.667-2.667 2.667-1.472 0-2.667-1.193-2.667-2.667v-21.284c0-8.725 7.099-15.824 15.823-15.824h112.361c8.725 0 15.823 7.099 15.823 15.824v71.043c0 8.724-7.097 15.823-15.823 15.823"/><path d="M2.881 55.585c-1.472 0-2.667-1.195-2.667-2.667v-6.26c0-1.473 1.195-2.667 2.667-2.667 1.472 0 2.667 1.193 2.667 2.667v6.26c0 1.472-1.195 2.667-2.667 2.667"/><path d="M129.174 103.559h-113.393c-4.956 0-9.931-2.796-13.311-7.921l-1.215-1.712 43.755-42.439 3.716 3.857-40.479 39.076c1.904 2.173 4.587 3.805 7.533 3.805h113.393c3.216 0 6.081-1.999 7.976-4.428l-41.469-39.829 3.7-3.773 44.599 43.009-1.063 1.565c-2.567 4.368-7.525 8.789-13.743 8.789"/><path d="M71.292 74.021c-4.315 0-8.348-1.685-11.355-4.748l-57.293-60.157.996-1.992c3.049-5.288 8.788-6.231 13.448-6.231h110.235c4.408 0 9.872.889 13.029 5.764.801 1.236.448 3.019-.789 3.82-1.237.801-2.888.248-3.687-.987-1.429-2.207-3.828-3.264-8.553-3.264h-110.235c-3.767 0-6.1.792-7.605 2.072l54.288 57.136c1.968 2.003 4.649 3.187 7.521 3.187 3.113 0 6.195-1.287 8.455-3.588l48.536-50.152c1.025-1.06 2.711-1.077 3.771-.053 1.059 1.024 1.087 2.716.063 3.775l-48.551 50.185c-3.271 3.329-7.739 5.233-12.273 5.233"/></g></svg>