<svg width="147" height="113" viewBox="0 0 147 113" xmlns="http://www.w3.org/2000/svg"><title>newspaper</title><desc>Created with Sketch.</desc><g fill="#303438" fill-rule="nonzero"><path d="M15.059 112.317c-7.951 0-14.667-7.021-14.667-15.332v-10.001c0-1.472 1.195-2.667 2.667-2.667 1.472 0 2.667 1.195 2.667 2.667v10.001c0 5.327 4.361 9.999 9.333 9.999 1.472 0 2.667 1.195 2.667 2.667 0 1.472-1.195 2.667-2.667 2.667"/><path d="M3.059 78.983c-1.472 0-2.667-1.195-2.667-2.667v-8c0-1.472 1.195-2.667 2.667-2.667 1.472 0 2.667 1.195 2.667 2.667v8c0 1.472-1.195 2.667-2.667 2.667"/><path d="M3.059 60.317c-1.472 0-2.667-1.195-2.667-2.667v-15.335c0-6.804 4.611-12.303 11.472-13.684 1.437-.287 2.849.644 3.141 2.089.291 1.444-.644 2.848-2.088 3.14-4.301.867-7.192 4.263-7.192 8.455v15.335c0 1.472-1.195 2.667-2.667 2.667"/><path d="M13.726 95.65c-1.472 0-2.667-1.195-2.667-2.667v-69.335c0-8.765 4.485-13.999 12-13.999 1.472 0 2.667 1.195 2.667 2.667 0 1.472-1.195 2.667-2.667 2.667-1.823 0-6.667 0-6.667 8.665v69.335c0 1.472-1.195 2.667-2.667 2.667"/><path d="M23.409 107.56h106.319c4.972 0 9.872-5.248 9.872-10.575v-82.669c0-4.94-4.552-8.089-9.872-8.089h-93.336c-5.32 0-8.792 3.149-8.792 8.089v82.669c0 3.779-1.929 7.908-4.191 10.575m106.319 5.333h-116.795v-5.909c5.333 0 9.333-4.672 9.333-9.999v-82.669c0-7.98 5.765-13.423 14.125-13.423h93.336c8.361 0 15.205 5.443 15.205 13.423v82.669c0 8.311-7.256 15.908-15.205 15.908"/><path d="M128.392 83.559h-90.667c-1.472 0-2.667-1.195-2.667-2.667 0-1.472 1.195-2.667 2.667-2.667h90.667c1.472 0 2.667 1.195 2.667 2.667 0 1.472-1.195 2.667-2.667 2.667"/><path d="M103.059 99.559h-65.333c-1.472 0-2.667-1.195-2.667-2.667 0-1.472 1.195-2.667 2.667-2.667h65.333c1.472 0 2.667 1.195 2.667 2.667 0 1.472-1.195 2.667-2.667 2.667"/><path d="M128.392 67.559h-90.667c-1.472 0-2.667-1.195-2.667-2.667 0-1.472 1.195-2.667 2.667-2.667h90.667c1.472 0 2.667 1.195 2.667 2.667 0 1.472-1.195 2.667-2.667 2.667"/><path d="M128.393 35.559h-44c-1.472 0-2.667-1.195-2.667-2.667 0-1.472 1.195-2.667 2.667-2.667h44c1.472 0 2.667 1.195 2.667 2.667 0 1.472-1.195 2.667-2.667 2.667"/><path d="M116.393 51.559h-32c-1.472 0-2.667-1.195-2.667-2.667 0-1.472 1.195-2.667 2.667-2.667h32c1.472 0 2.667 1.195 2.667 2.667 0 1.472-1.195 2.667-2.667 2.667"/><path d="M128.393 19.559h-44c-1.472 0-2.667-1.195-2.667-2.667 0-1.472 1.195-2.667 2.667-2.667h44c1.472 0 2.667 1.195 2.667 2.667 0 1.472-1.195 2.667-2.667 2.667"/><path d="M43.515 18.983c-1.721 0-3.123 1.401-3.123 3.123v20.421c0 1.721 1.401 3.123 3.123 3.123h20.421c1.721 0 3.123-1.401 3.123-3.123v-20.421c0-1.721-1.401-3.123-3.123-3.123h-20.421zm20.421 32h-20.421c-4.663 0-8.456-3.793-8.456-8.456v-20.421c0-4.663 3.793-8.456 8.456-8.456h20.421c4.663 0 8.456 3.793 8.456 8.456v20.421c0 4.663-3.793 8.456-8.456 8.456z"/></g></svg>