<svg width="114" height="154" viewBox="0 0 114 154" xmlns="http://www.w3.org/2000/svg"><title>notify</title><desc>Created with Sketch.</desc><g fill="#303438" fill-rule="nonzero"><path d="M41.546 134.555c1.265 7.148 7.523 12.593 15.028 12.593 7.504 0 13.761-5.445 15.027-12.593h-30.055zm15.028 17.927c-11.356 0-20.595-9.237-20.595-20.593v-2.667h41.188v2.667c0 11.356-9.239 20.593-20.593 20.593z"/><path d="M12.02 63.605c-.171 0-.345-.017-.52-.052-1.444-.284-2.384-1.687-2.099-3.132 4.484-22.713 24.569-39.199 47.757-39.199 6.469 0 12.721 1.212 18.58 3.601 1.364.557 2.019 2.113 1.461 3.476-.556 1.363-2.107 2.016-3.477 1.463-5.216-2.128-10.788-3.207-16.564-3.207-20.648 0-38.532 14.677-42.525 34.899-.251 1.271-1.365 2.151-2.613 2.151"/><path d="M105.577 133.222h-96.824c-2.433 0-4.719-1.253-6.112-3.353-1.452-2.185-1.725-4.897-.732-7.256l2.011-4.777c2.729-6.481 4-13.477 4-22.015l.069-9.804c.009-1.465 1.201-2.648 2.667-2.648h.017c1.473.011 2.659 1.213 2.649 2.687l-.069 9.784c0 9.253-1.404 16.907-4.417 24.065l-2.011 4.779c-.299.707-.201 1.541.259 2.235.193.292.743.971 1.669.971h96.824c.924 0 1.475-.677 1.668-.969.461-.693.557-1.529.26-2.236l-2.017-4.775c-3.804-9.036-5.499-16.443-5.499-24.02v-26.667c0-6.171-1.239-12.089-3.683-17.591-.597-1.347.009-2.921 1.355-3.52 1.343-.599 2.923.008 3.52 1.355 2.748 6.188 4.141 12.835 4.141 19.756v26.667c0 6.833 1.565 13.601 5.08 21.948l2.017 4.775c.993 2.36.72 5.072-.731 7.257-1.395 2.1-3.679 3.353-6.112 3.353"/><path d="M10.656 79.889c-1.472 0-2.667-1.195-2.667-2.667v-5.976c0-1.472 1.195-2.667 2.667-2.667 1.472 0 2.667 1.195 2.667 2.667v5.976c0 1.472-1.195 2.667-2.667 2.667"/><path d="M93.322 115.889h-84.553c-1.473 0-2.667-1.195-2.667-2.667 0-1.472 1.193-2.667 2.667-2.667h84.553c1.472 0 2.667 1.195 2.667 2.667 0 1.472-1.195 2.667-2.667 2.667"/><path d="M53.932 20.56h6.667v-10.429c0-1.824-1.495-3.308-3.333-3.308-1.839 0-3.333 1.484-3.333 3.308v10.429zm12 5.333h-17.333v-15.763c0-4.765 3.888-8.641 8.667-8.641s8.667 3.876 8.667 8.641v15.763z"/><path d="M93.025 19.435c-8.084 0-14.663 6.577-14.663 14.663 0 8.085 6.579 14.663 14.663 14.663s14.663-6.577 14.663-14.663c0-1.407-.197-2.795-.587-4.127-.476-1.623-1.224-3.14-2.225-4.511-1.273-1.743-2.944-3.208-4.832-4.241-2.139-1.167-4.565-1.784-7.019-1.784m0 34.659c-11.027 0-19.996-8.969-19.996-19.996 0-11.025 8.969-19.996 19.996-19.996 3.345 0 6.656.843 9.576 2.437 2.572 1.407 4.848 3.403 6.58 5.775 1.368 1.871 2.389 3.943 3.039 6.16.532 1.817.801 3.711.801 5.624 0 11.027-8.969 19.996-19.996 19.996"/></g></svg>