<svg width="125" height="128" viewBox="0 0 125 128" xmlns="http://www.w3.org/2000/svg"><title>package</title><desc>Created with Sketch.</desc><g fill="#303438" fill-rule="nonzero"><path d="M3.453 95.585c-1.472 0-2.667-1.195-2.667-2.667v-18.667c0-1.472 1.195-2.667 2.667-2.667 1.472 0 2.667 1.195 2.667 2.667v18.667c0 1.472-1.195 2.667-2.667 2.667"/><path d="M112.786 127.585h-100.163c-6.528 0-11.837-5.311-11.837-11.839v-12.161c0-1.472 1.195-2.667 2.667-2.667 1.472 0 2.667 1.195 2.667 2.667v12.161c0 3.588 2.917 6.505 6.504 6.505h100.163c3.585 0 6.504-2.917 6.504-6.505v-69.495h-113.171v18.667c0 1.472-1.195 2.667-2.667 2.667-1.472 0-2.667-1.195-2.667-2.667v-24h123.837v74.828c0 6.528-5.309 11.839-11.837 11.839"/><path d="M7.096 40.919h111.056l-11.305-31.184c-.756-2.083-2.753-3.483-4.969-3.483h-78.495c-2.224 0-4.224 1.408-4.975 3.503l-11.312 31.164zm111.436 1.047h.013-.013zm.733 4.287h-113.283c-1.483 0-2.877-.725-3.729-1.94-.852-1.215-1.057-2.772-.551-4.168l11.689-32.199c1.504-4.199 5.52-7.027 9.991-7.027h78.495c4.453 0 8.465 2.812 9.981 6.999l11.687 32.229c.507 1.393.301 2.951-.551 4.165-.852 1.215-2.247 1.94-3.729 1.94z"/><path d="M52.623 46.252v22.912c0 1.336 1.085 2.421 2.421 2.421h19.157c1.336 0 2.421-1.085 2.421-2.421v-22.912h-24zm21.579 30.667h-19.157c-4.276 0-7.755-3.479-7.755-7.755v-28.245h34.667v28.245c0 4.276-3.479 7.755-7.755 7.755z"/><path d="M52.903 40.919h23.44l-3.467-34.667h-16.507l-3.467 34.667zm29.333 5.333h-35.227l4.533-45.333h26.16l4.533 45.333z"/></g></svg>