<svg width="127" height="143" viewBox="0 0 127 143" xmlns="http://www.w3.org/2000/svg"><title>paper</title><desc>Created with Sketch.</desc><g fill="#303438" fill-rule="nonzero"><path d="M118.797 122.226h-11.197c-1.473 0-2.667-1.195-2.667-2.667 0-1.472 1.193-2.667 2.667-2.667h11.197c1.177 0 2.136-.331 2.136-1.507v-84.763l-23.775-24.397h-61.751c-1.2 0-2.475 1.56-2.475 3.292v12c0 1.473-1.195 2.667-2.667 2.667-1.473 0-2.667-1.193-2.667-2.667v-12c0-4.485 3.429-8.625 7.808-8.625h63.96l26.899 27.521v86.972c0 4.116-3.351 6.84-7.469 6.84"/><path d="M122.838 36.185h-18.413c-4.781 0-8.253-3.364-8.253-8v-22.667c0-1.472 1.195-2.667 2.667-2.667 1.472 0 2.667 1.195 2.667 2.667v22.667c0 2.475 2.236 2.667 2.92 2.667h18.413c1.472 0 2.667 1.195 2.667 2.667 0 1.472-1.195 2.667-2.667 2.667"/><path d="M90.797 142.226h-82.533c-4.453 0-7.331-2.515-7.331-7.375v-57.333c0-1.472 1.193-2.667 2.667-2.667 1.472 0 2.667 1.195 2.667 2.667v57.333c0 2.667 1.201 2.041 1.997 2.041h82.533c1.177 0 2.136-.331 2.136-1.507v-84.763l-23.775-24.397h-61.751c-.371 0-1.141.625-1.141 3.292v16c0 1.473-1.195 2.667-2.667 2.667-1.473 0-2.667-1.193-2.667-2.667v-16c0-5.899 3.344-8.625 6.475-8.625h63.96l26.899 27.521v86.972c0 4.116-3.351 6.84-7.469 6.84"/><path d="M3.599 68.185c-1.472 0-2.667-1.195-2.667-2.667v-9.333c0-1.472 1.195-2.667 2.667-2.667 1.472 0 2.667 1.195 2.667 2.667v9.333c0 1.472-1.195 2.667-2.667 2.667"/><path d="M93.504 56.185h-17.08c-4.781 0-8.253-3.364-8.253-8v-21.333c0-1.472 1.195-2.667 2.667-2.667 1.472 0 2.667 1.195 2.667 2.667v21.333c0 2.475 2.236 2.667 2.92 2.667h17.08c1.472 0 2.667 1.195 2.667 2.667 0 1.472-1.195 2.667-2.667 2.667"/><path d="M78.265 71.559h-58.667c-1.472 0-2.667-1.195-2.667-2.667 0-1.472 1.195-2.667 2.667-2.667h58.667c1.472 0 2.667 1.195 2.667 2.667 0 1.472-1.195 2.667-2.667 2.667"/><path d="M60.932 94.226h-41.333c-1.472 0-2.667-1.195-2.667-2.667 0-1.472 1.195-2.667 2.667-2.667h41.333c1.472 0 2.667 1.195 2.667 2.667 0 1.472-1.195 2.667-2.667 2.667"/><path d="M50.265 48.893h-30.667c-1.472 0-2.667-1.195-2.667-2.667 0-1.472 1.195-2.667 2.667-2.667h30.667c1.472 0 2.667 1.195 2.667 2.667 0 1.472-1.195 2.667-2.667 2.667"/><path d="M71.599 118.226h-52c-1.472 0-2.667-1.195-2.667-2.667 0-1.472 1.195-2.667 2.667-2.667h52c1.472 0 2.667 1.195 2.667 2.667 0 1.472-1.195 2.667-2.667 2.667"/></g></svg>