<svg width="79" height="134" viewBox="0 0 79 134" xmlns="http://www.w3.org/2000/svg"><title>phone</title><desc>Created with Sketch.</desc><g fill="#303438" fill-rule="nonzero"><path d="M2.667 86c-1.472 0-2.667-1.195-2.667-2.667v-8c0-1.472 1.195-2.667 2.667-2.667 1.472 0 2.667 1.195 2.667 2.667v8c0 1.472-1.195 2.667-2.667 2.667"/><path d="M44 120.667c0 2.209-1.791 4-4 4s-4-1.791-4-4 1.791-4 4-4 4 1.791 4 4"/><path d="M61.333 114h-56c-1.472 0-2.667-1.195-2.667-2.667 0-1.472 1.195-2.667 2.667-2.667h56c1.472 0 2.667 1.195 2.667 2.667 0 1.472-1.195 2.667-2.667 2.667"/><path d="M74.667 15.333h-69.333c-1.472 0-2.667-1.195-2.667-2.667 0-1.472 1.195-2.667 2.667-2.667h69.333c1.472 0 2.667 1.195 2.667 2.667 0 1.472-1.195 2.667-2.667 2.667"/><path d="M66.829 134h-54.992c-6.528 0-11.837-5.311-11.837-11.837v-30.829c0-1.472 1.193-2.667 2.667-2.667 1.472 0 2.667 1.195 2.667 2.667v30.829c0 3.587 2.917 6.504 6.504 6.504h54.992c3.585 0 6.504-2.917 6.504-6.504v-109.659c0-3.587-2.919-6.504-6.504-6.504h-54.829c-3.587 0-6.504 2.917-6.504 6.504v54.829c0 1.472-1.195 2.667-2.667 2.667-1.472 0-2.667-1.195-2.667-2.667v-54.829c0-6.527 5.309-11.837 11.837-11.837h54.829c6.528 0 11.837 5.311 11.837 11.837v109.659c0 6.527-5.309 11.837-11.837 11.837"/></g></svg>