<svg width="143" height="116" viewBox="0 0 143 116" xmlns="http://www.w3.org/2000/svg"><title>pocket</title><desc>Created with Sketch.</desc><g fill="#303438" fill-rule="nonzero"><path d="M141.865 51.892h-5.333v-2.076c0-1.796-1.461-3.257-3.257-3.257h-.743v4h-5.333v-9.333h6.076c4.736 0 8.591 3.855 8.591 8.591v2.076z"/><path d="M3.199 36.225c-1.472 0-2.667-1.195-2.667-2.667v-17.333c0-8.131 6.869-15 15-15h86.333c6.207 0 11.767 3.931 13.833 9.783.491 1.388-.237 2.912-1.627 3.403-1.387.492-2.911-.239-3.401-1.627-1.316-3.724-4.855-6.225-8.805-6.225h-86.333c-5.149 0-9.667 4.517-9.667 9.667v17.333c0 1.472-1.195 2.667-2.667 2.667"/><path d="M118.867 115.226h-102.669c-8.491 0-15.932-6.197-15.932-13.967v-29.667c0-1.473 1.195-2.667 2.667-2.667 1.473 0 2.667 1.193 2.667 2.667v29.667c0 5.304 5.712 8.633 10.599 8.633h102.669c4.983 0 8.065-3.251 8.065-8.633v-8.333c0-1.473 1.195-2.667 2.667-2.667 1.473 0 2.667 1.193 2.667 2.667v8.333c0 8.305-5.481 13.967-13.399 13.967"/><path d="M129.599 52.926c-1.472 0-2.667-1.195-2.667-2.667v-13c0-4.687-2.655-10.033-8.065-10.033h-90.335c-1.473 0-2.667-1.193-2.667-2.667 0-1.472 1.193-2.667 2.667-2.667h90.335c7.789 0 13.399 6.815 13.399 15.367v13c0 1.472-1.195 2.667-2.667 2.667"/><path d="M2.933 46.259c-1.472 0-2.667-1.195-2.667-2.667v-30.667c0-1.472 1.195-2.667 2.667-2.667 1.472 0 2.667 1.195 2.667 2.667v30.667c0 1.472-1.195 2.667-2.667 2.667"/><path d="M2.933 64.926c-1.472 0-2.667-1.195-2.667-2.667v-9.333c0-1.472 1.195-2.667 2.667-2.667 1.472 0 2.667 1.195 2.667 2.667v9.333c0 1.472-1.195 2.667-2.667 2.667"/><path d="M20.96 15.892c-1.707 0-3.095 1.389-3.095 3.096v.904c0 1.471 1.196 2.667 2.667 2.667h99.612c-1.151-3.851-4.725-6.667-8.945-6.667h-90.239zm104.905 12h-105.333c-4.412 0-8-3.588-8-8v-.904c0-4.648 3.781-8.429 8.428-8.429h90.239c8.087 0 14.667 6.58 14.667 14.667v2.667z"/><path d="M133.865 82.559h-19.928c-8.863 0-16.072-7.623-16.072-16.992 0-9.011 7.331-16.341 16.343-16.341h18.324c1.472 0 2.667 1.195 2.667 2.667 0 1.472-1.195 2.667-2.667 2.667h-18.324c-6.071 0-11.009 4.939-11.009 11.008 0 6.32 4.917 11.659 10.739 11.659h19.928c1.221 0 2.667-1.651 2.667-3.047v-22.287c0-1.472 1.195-2.667 2.667-2.667 1.472 0 2.667 1.195 2.667 2.667v22.287c0 4.385-3.812 8.38-8 8.38"/><path d="M119.198 65.892c0 2.577-2.089 4.667-4.667 4.667-2.577 0-4.667-2.089-4.667-4.667 0-2.577 2.089-4.667 4.667-4.667 2.577 0 4.667 2.089 4.667 4.667"/></g></svg>