<svg width="119" height="117" viewBox="0 0 119 117" xmlns="http://www.w3.org/2000/svg"><title>save</title><desc>Created with Sketch.</desc><g fill="none"><g fill="#303438" fill-rule="nonzero"><path d="M79.509 52.277h-42.533c-7.757 0-14.067-6.309-14.067-14.067v-23.267c0-1.472 1.193-2.667 2.667-2.667 1.472 0 2.667 1.195 2.667 2.667v23.267c0 4.816 3.917 8.733 8.733 8.733h42.533c4.815 0 8.733-3.917 8.733-8.733v-35.267c0-1.472 1.193-2.667 2.667-2.667 1.472 0 2.667 1.195 2.667 2.667v35.267c0 7.757-6.311 14.067-14.067 14.067"/><path d="M76.242 42.944c-1.472 0-2.667-1.195-2.667-2.667v-28c0-1.472 1.195-2.667 2.667-2.667 1.472 0 2.667 1.195 2.667 2.667v28c0 1.472-1.195 2.667-2.667 2.667"/><path d="M105.739 116.277h-93.789c-6.456 0-11.707-5.252-11.707-11.707v-34.96c0-1.473 1.193-2.667 2.667-2.667 1.472 0 2.667 1.193 2.667 2.667v34.96c0 3.513 2.859 6.373 6.373 6.373h93.789c3.585 0 6.504-2.917 6.504-6.504v-81.405c0-1.925-.751-3.736-2.112-5.097l-10.213-10.216c-1.363-1.361-3.173-2.111-5.099-2.111h-82.739c-3.587 0-6.504 2.917-6.504 6.504v20.163c0 1.472-1.195 2.667-2.667 2.667-1.473 0-2.667-1.195-2.667-2.667v-20.163c0-6.527 5.309-11.837 11.837-11.837h82.739c3.349 0 6.5 1.305 8.869 3.673l10.213 10.215c2.369 2.369 3.675 5.519 3.675 8.869v81.405c0 6.527-5.309 11.837-11.837 11.837"/><path d="M2.932 58.926c-1.472 0-2.667-1.195-2.667-2.667v-10.667c0-1.472 1.195-2.667 2.667-2.667 1.472 0 2.667 1.195 2.667 2.667v10.667c0 1.472-1.195 2.667-2.667 2.667"/><path d="M31.9 62.944c-2.017 0-3.657 1.641-3.657 3.659v30.016c0 2.017 1.64 3.659 3.657 3.659h52.685c2.016 0 3.657-1.641 3.657-3.659v-30.016c0-2.017-1.641-3.659-3.657-3.659h-52.685zm52.685 42.667h-52.685c-4.957 0-8.991-4.033-8.991-8.992v-30.016c0-4.959 4.033-8.992 8.991-8.992h52.685c4.956 0 8.991 4.033 8.991 8.992v30.016c0 4.959-4.035 8.992-8.991 8.992z"/><path d="M72.242 78.944h-28c-1.472 0-2.667-1.195-2.667-2.667 0-1.472 1.195-2.667 2.667-2.667h28c1.472 0 2.667 1.195 2.667 2.667 0 1.472-1.195 2.667-2.667 2.667"/><path d="M72.242 89.61h-28c-1.472 0-2.667-1.195-2.667-2.667 0-1.472 1.195-2.667 2.667-2.667h28c1.472 0 2.667 1.195 2.667 2.667 0 1.472-1.195 2.667-2.667 2.667"/></g></g></svg>