<svg width="118" height="116" viewBox="0 0 118 116" xmlns="http://www.w3.org/2000/svg"><title>search</title><desc>Created with Sketch.</desc><g fill="#303438" fill-rule="nonzero"><path d="M51.191 100.485c-12.801 0-25.601-4.872-35.347-14.617-9.768-9.769-14.961-22.756-14.625-36.568.037-1.472 1.288-2.616 2.731-2.601 1.473.036 2.637 1.259 2.601 2.731-.301 12.34 4.339 23.941 13.064 32.668 17.412 17.409 45.74 17.409 63.152 0 17.409-17.411 17.409-45.74 0-63.151-17.412-17.409-45.74-17.409-63.152 0-1.041 1.041-2.729 1.041-3.771 0-1.041-1.041-1.041-2.729 0-3.771 19.489-19.489 51.204-19.489 70.693 0 19.489 19.489 19.489 51.203 0 70.692-9.745 9.745-22.545 14.617-35.347 14.617"/><path d="M5.579 40.559c-.235 0-.473-.031-.711-.097-1.42-.392-2.253-1.86-1.861-3.28.568-2.057 1.275-4.096 2.1-6.06.649-1.541 1.387-3.071 2.191-4.545.705-1.293 2.323-1.769 3.619-1.064 1.293.705 1.769 2.325 1.064 3.619-.719 1.317-1.377 2.683-1.956 4.059-.737 1.753-1.368 3.573-1.876 5.412-.325 1.181-1.4 1.957-2.569 1.957"/><path d="M103.916 115.946c-3.252 0-6.507-1.239-8.983-3.715l-21.151-21.151 16.081-16.081c1.041-1.041 2.729-1.041 3.771 0 1.041 1.041 1.041 2.729 0 3.771l-12.309 12.311 17.379 17.38c2.877 2.875 7.553 2.873 10.425-.001 2.873-2.873 2.873-7.549 0-10.424l-10.939-10.937c-1.041-1.041-1.041-2.729 0-3.771 1.041-1.043 2.729-1.043 3.771 0l10.939 10.937c4.953 4.953 4.953 13.013 0 17.967-2.476 2.476-5.731 3.715-8.984 3.715"/></g></svg>