<svg width="137" height="130" viewBox="0 0 137 130" xmlns="http://www.w3.org/2000/svg"><title>tag</title><desc>Created with Sketch.</desc><g fill="#303438" fill-rule="nonzero"><path d="M10.188 79.801c-.96 0-1.887-.519-2.363-1.427l-5.031-9.583c-1.621-3.085-2.121-6.423-1.409-9.396.765-3.189 2.891-5.841 5.987-7.465l56.653-29.74c2.955-1.552 6.256-1.972 9.288-1.183 1.425.372 2.281 1.827 1.909 3.252-.371 1.424-1.831 2.28-3.251 1.909-1.775-.46-3.663-.203-5.468.743l-56.653 29.74c-1.739.912-2.872 2.291-3.277 3.987-.412 1.717-.077 3.732.943 5.675l5.031 9.581c.684 1.305.181 2.917-1.121 3.601-.396.208-.82.305-1.237.305"/><path d="M83.72 45.939c-1.777 0-3.449.693-4.707 1.951-2.596 2.595-2.596 6.817 0 9.412 2.596 2.595 6.817 2.595 9.413 0s2.596-6.817 0-9.412c-1.257-1.257-2.929-1.951-4.707-1.951zm0 18.64c-3.071 0-6.14-1.168-8.477-3.505-4.675-4.675-4.675-12.28 0-16.955 2.264-2.265 5.275-3.513 8.477-3.513 3.203 0 6.213 1.248 8.477 3.513 4.675 4.675 4.675 12.28 0 16.955-2.337 2.337-5.407 3.505-8.477 3.505zm24.233 7.273h.013-.013zm-20.011-42.599l-.305.008-23.907 1.065c-1.941.092-3.675.845-5.005 2.176l-45.245 45.244c-1.407 1.408-2.099 3.156-1.999 5.053.1 1.907.997 3.799 2.529 5.331l33.399 33.399c3.164 3.164 7.531 3.383 10.384.531l45.244-45.247c1.359-1.357 2.157-3.161 2.252-5.081l.989-23.815c.096-2.027-.757-4.04-2.404-5.687l-10.567-10.567c-1.561-1.561-3.455-2.411-5.365-2.411zm-34.872 100.151c-3.32 0-6.705-1.376-9.433-4.104l-33.397-33.399c-2.465-2.464-3.916-5.597-4.085-8.824-.177-3.399 1.085-6.631 3.555-9.101l45.245-45.244c2.284-2.284 5.233-3.575 8.529-3.733l23.908-1.065c3.536-.184 6.967 1.239 9.688 3.96l10.565 10.567c2.723 2.721 4.129 6.165 3.961 9.696l-.989 23.823c-.156 3.252-1.509 6.308-3.809 8.607l-45.244 45.245c-2.387 2.387-5.412 3.573-8.493 3.573z"/><path d="M69.958 93.948c-.683 0-1.364-.26-1.885-.781l-25.699-25.699c-1.043-1.043-1.043-2.729 0-3.771 1.041-1.043 2.728-1.043 3.771 0l25.699 25.699c1.041 1.041 1.041 2.729 0 3.771-.521.521-1.203.781-1.885.781"/><path d="M57.701 106.205c-.683 0-1.364-.26-1.885-.781l-25.699-25.699c-1.043-1.043-1.043-2.729 0-3.771 1.041-1.043 2.728-1.043 3.771 0l25.699 25.699c1.041 1.041 1.041 2.729 0 3.771-.521.521-1.203.781-1.885.781"/><path d="M104.547 63.501c-8.329 0-16.16-3.244-22.049-9.135-1.041-1.041-1.041-2.728 0-3.771 1.041-1.041 2.729-1.041 3.771 0 4.883 4.883 11.373 7.572 18.279 7.572 6.905 0 13.396-2.689 18.279-7.572 10.079-10.077 10.079-26.477 0-36.557-10.08-10.076-26.477-10.076-36.557 0-3.501 3.503-5.912 7.899-6.969 12.711-.315 1.44-1.74 2.352-3.175 2.032-1.439-.315-2.349-1.739-2.033-3.176 1.276-5.808 4.183-11.112 8.407-15.337 12.156-12.157 31.94-12.16 44.099 0 12.157 12.159 12.157 31.941 0 44.099-5.889 5.891-13.72 9.135-22.049 9.135"/></g></svg>