<svg width="121" height="146" viewBox="0 0 121 146" xmlns="http://www.w3.org/2000/svg"><title>tasks</title><desc>Created with Sketch.</desc><g fill="#303438" fill-rule="nonzero"><path d="M4.644 71.983c-1.472 0-2.667-1.195-2.667-2.667v-12c0-1.472 1.195-2.667 2.667-2.667 1.472 0 2.667 1.195 2.667 2.667v12c0 1.472-1.195 2.667-2.667 2.667"/><path d="M108.806 145.317h-94.992c-6.528 0-11.837-5.311-11.837-11.837v-53.496c0-1.473 1.193-2.667 2.667-2.667 1.472 0 2.667 1.193 2.667 2.667v53.496c0 3.587 2.917 6.504 6.504 6.504h94.992c3.585 0 6.504-2.917 6.504-6.504v-117.659c0-3.587-2.919-6.504-6.504-6.504h-21.496c-1.473 0-2.667-1.195-2.667-2.667 0-1.472 1.193-2.667 2.667-2.667h21.496c6.528 0 11.837 5.311 11.837 11.837v117.659c0 6.527-5.309 11.837-11.837 11.837"/><path d="M4.644 50.649c-1.472 0-2.667-1.195-2.667-2.667v-32.161c0-6.528 5.383-11.839 12-11.839h21.333c1.472 0 2.667 1.195 2.667 2.667 0 1.473-1.195 2.667-2.667 2.667h-21.333c-3.613 0-6.667 2.979-6.667 6.505v32.161c0 1.472-1.195 2.667-2.667 2.667"/><path d="M84.414 136.559h-63.96c-4.38 0-7.188-4.091-7.188-8.576v-105.169c-1.333-1.768.084-3.253 1.359-4.725 1.683-1.944 4.052-2.863 6.685-2.863h12.667c1.472 0 2.667 1.195 2.667 2.667 0 1.472-1.195 2.667-2.667 2.667h-12.667c-1.079 0-2.297.249-2.964 1.019-.211.244-.139.467-.085.833l.339.239v105.333c0 1.732.653 3.243 1.855 3.243h61.752l24.393-24.348v-84.763c0-1.176-1.58-1.556-2.756-1.556h-5.867c-1.473 0-2.667-1.195-2.667-2.667 0-1.472 1.193-2.667 2.667-2.667h5.867c4.117 0 8.089 2.773 8.089 6.889v86.972l-27.519 27.472z"/><path d="M81.977 133.317c-1.472 0-2.667-1.195-2.667-2.667v-20c0-4.485 3.917-8 8.92-8h19.747c1.472 0 2.667 1.195 2.667 2.667 0 1.472-1.195 2.667-2.667 2.667h-19.747c-1.763 0-3.587.997-3.587 2.667v20c0 1.472-1.195 2.667-2.667 2.667"/><path d="M84.643 1.317h-46.667c-2.945 0-5.333 2.388-5.333 5.333v10.667c0 2.945 2.388 5.333 5.333 5.333h46.667c2.945 0 5.333-2.388 5.333-5.333v-10.667c0-2.945-2.388-5.333-5.333-5.333zm0 16h-46.667v-10.667h46.667v10.667z"/><path d="M32.254 49.983c-.667 0-1.333-.249-1.849-.745l-4.277-4.117c-1.061-1.023-1.093-2.711-.071-3.772 1.021-1.06 2.711-1.092 3.769-.071l2.428 2.337 8.54-8.22c1.061-1.021 2.751-.989 3.771.072 1.021 1.061.989 2.749-.072 3.771l-10.389 10c-.516.496-1.183.745-1.849.745"/><path d="M32.643 72.65c-.683 0-1.364-.26-1.885-.781l-4.667-4.667c-1.041-1.041-1.041-2.729 0-3.771 1.041-1.041 2.729-1.041 3.771 0l2.781 2.78 9.448-9.447c1.041-1.041 2.729-1.041 3.771 0 1.041 1.041 1.041 2.729 0 3.771l-11.333 11.333c-.521.521-1.203.781-1.885.781"/><path d="M32.643 96.65c-.683 0-1.364-.26-1.885-.781l-4.667-4.667c-1.041-1.041-1.041-2.729 0-3.771 1.041-1.041 2.729-1.041 3.771 0l2.781 2.78 9.448-9.447c1.041-1.041 2.729-1.041 3.771 0 1.041 1.041 1.041 2.729 0 3.771l-11.333 11.333c-.521.521-1.203.781-1.885.781"/><path d="M93.977 44.559h-41.333c-1.472 0-2.667-1.195-2.667-2.667 0-1.472 1.195-2.667 2.667-2.667h41.333c1.472 0 2.667 1.195 2.667 2.667 0 1.472-1.195 2.667-2.667 2.667"/><path d="M76.644 67.226h-24c-1.472 0-2.667-1.195-2.667-2.667 0-1.472 1.195-2.667 2.667-2.667h24c1.472 0 2.667 1.195 2.667 2.667 0 1.472-1.195 2.667-2.667 2.667"/><path d="M87.31 91.226h-34.667c-1.472 0-2.667-1.195-2.667-2.667 0-1.472 1.195-2.667 2.667-2.667h34.667c1.472 0 2.667 1.195 2.667 2.667 0 1.472-1.195 2.667-2.667 2.667"/></g></svg>