<svg viewBox="0 0 512 512" xmlns="http://www.w3.org/2000/svg"><path d="m481.156 200c9.3 0 15.12 10.155 10.325 18.124-25.186 41.868-71.062 69.876-123.481 69.876-79.222 0-143.501-63.974-143.997-143.079-.498-79.452 64.545-144.922 143.999-144.921 52.362.001 98.196 27.949 123.4 69.743 4.838 8.023-.879 18.257-10.248 18.257h-105.154l-40 56 40 56zm-171.649 93.003-200.252 200.252c-24.994 24.993-65.515 24.994-90.51 0-24.993-24.994-24.993-65.516 0-90.51l200.246-200.245c16.16 41.197 49.303 74.335 90.516 90.503zm-205.507 138.997c0-13.255-10.745-24-24-24s-24 10.745-24 24 10.745 24 24 24 24-10.745 24-24z"/></svg>